<?xml version="1.0" encoding="iso-8859-1"?>
<!-- Generator: Adobe Illustrator 19.0.0, SVG Export Plug-In . SVG Version: 6.00 Build 0)  -->
<svg version="1.1" id="Capa_1" xmlns="http://www.w3.org/2000/svg" xmlns:xlink="http://www.w3.org/1999/xlink" x="0px" y="0px"
	 viewBox="0 0 512 512" style="enable-background:new 0 0 512 512;" xml:space="preserve">
<path style="fill:#E8E8E8;" d="M512,256c0,1.844-0.02,3.678-0.06,5.502c-0.762,34.565-8.659,67.366-22.288,96.99
	c-2.455,5.342-5.101,10.583-7.927,15.704C450.216,431.46,396.53,474.794,332.22,492.623c-20.925,5.813-42.973,8.909-65.753,8.909
	c-33.102,0-64.67-6.554-93.483-18.43c-31.458-12.958-59.629-32.26-82.92-56.322c-2.225-2.295-4.4-4.63-6.524-7.005
	c-30.426-33.944-51.532-76.426-59.299-123.408c-2.175-13.128-3.307-26.618-3.307-40.368c0-8.899,0.471-17.688,1.403-26.347
	c0.541-5.121,1.243-10.202,2.115-15.223C44.196,98.619,145.034,10.468,266.468,10.468C402.072,10.468,512,120.396,512,256z"/>
<circle style="fill:#F4F4F4;" cx="266.468" cy="215.046" r="204.574"/>
<path style="fill:#4BC999;" d="M246.715,357.49v126.635c-29.414,0-53.696-0.08-73.73-1.022
	c-31.458-12.958-59.629-32.26-82.92-56.322c-2.225-2.295-4.4-4.63-6.524-7.005c-0.892-11.725,0.2-24.493,5.773-35.497
	c7.596-15.003,27.029-15.433,32.891-26.788H246.715z"/>
<path style="fill:#1E9E67;" d="M205.736,330.171l-53.787-29.023c0,0-9.911,17.929-29.744,56.342
	c-5.863,11.355-12.597,24.493-20.184,39.486c-5.652,11.174-9.791,21.066-11.956,29.805c-33.934-35.026-57.515-80.144-65.823-130.413
	l25.545-50.71l-27.45-16.005L0,216.625l24.453-2.195l118.106-10.603L205.736,330.171z"/>
<path style="fill:#4BC999;" d="M511.94,261.502c-0.762,34.565-8.659,67.366-22.288,96.99c-2.455,5.342-5.101,10.583-7.927,15.704
	c-5.231,1.974-10.723,3.287-16.365,3.598c-16.786,0.922-26.878-15.694-39.646-15.093l-62.255-107.834l109.668-63.317
	C489.391,219.731,502.439,242.521,511.94,261.502z"/>
<path style="fill:#1E9E67;" d="M489.652,358.492c-29.905,65.011-87.369,114.709-157.431,134.131L282.452,421.9l77.839-117.886
	l1.754,61.092c0,0,20.484-0.381,63.668-2.405c12.768-0.601,27.51-1.343,44.296-2.265
	C477.175,360.036,483.739,359.424,489.652,358.492z"/>
<path style="fill:#4BC999;" d="M213.294,207.452l-109.668-63.317c29.672-51.393,49.195-84.566,67.783-102.487
	c10.716-10.331,25.068-16.033,39.954-16.171l0,0c0.005,0.003,0.01,0.006,0.018,0.004c13.715,2.45,43.553,11.021,57.42,32.264
	c9.192,14.075-0.145,31.121,6.753,41.873L213.294,207.452z"/>
<path style="fill:#1E9E67;" d="M398.455,194.083l-141.011-8.461l52.027-32.07c0,0-10.569-17.551-33.919-53.936
	c-6.898-10.751-14.915-23.149-24.107-37.223c-13.867-21.242-26.351-34.464-40.066-36.914l131.236-1.211
	c13.027-0.115,25.231,6.398,32.371,17.297l33.622,51.26l50.036-28.611L398.455,194.083z"/>
<g>
</g>
<g>
</g>
<g>
</g>
<g>
</g>
<g>
</g>
<g>
</g>
<g>
</g>
<g>
</g>
<g>
</g>
<g>
</g>
<g>
</g>
<g>
</g>
<g>
</g>
<g>
</g>
<g>
</g>
</svg>
