<?xml version="1.0" encoding="iso-8859-1"?>
<!-- Generator: Adobe Illustrator 19.0.0, SVG Export Plug-In . SVG Version: 6.00 Build 0)  -->
<svg version="1.1" id="Capa_1" xmlns="http://www.w3.org/2000/svg" xmlns:xlink="http://www.w3.org/1999/xlink" x="0px" y="0px"
	 viewBox="0 0 512 512" style="enable-background:new 0 0 512 512;" xml:space="preserve">
<path style="fill:#34ABE0;" d="M512,256c0,104.135-62.182,193.755-151.437,233.744C328.641,504.048,293.251,512,256,512
	c-41.044,0-79.83-9.655-114.207-26.833c-36.739-18.338-68.451-45.255-92.505-78.137c-5.277-7.21-10.188-14.702-14.702-22.455
	C12.591,346.791,0,302.864,0,256c0-45.234,11.734-87.719,32.319-124.604c5.12-9.174,10.783-17.993,16.969-26.425
	c6.99-9.571,14.639-18.631,22.862-27.126C118.69,29.842,183.86,0,256,0c35.265,0,68.869,7.126,99.443,20.031
	C447.436,58.849,512,149.88,512,256z"/>
<circle style="fill:#72BBE8;" cx="256" cy="213.295" r="213.295"/>
<path style="fill:#5C5E70;" d="M360.563,39.455v450.288C328.641,504.048,293.251,512,256,512
	c-94.521,0-177.068-51.221-221.414-127.425c-0.784-1.839-1.536-3.689-2.267-5.548V39.455C32.319,17.669,49.988,0,71.774,0h249.334
	c6.405,0,12.466,1.536,17.815,4.242c3.814,1.933,7.272,4.472,10.24,7.492c2.445,2.466,4.566,5.256,6.28,8.296
	C358.703,25.767,360.563,32.392,360.563,39.455z"/>
<path style="fill:#E8E8E8;" d="M343.594,103.351v356.153c0,14.179-11.494,25.663-25.663,25.663H141.793
	c-36.739-18.338-68.451-45.255-92.505-78.137V103.351c0-13.218,10.01-24.116,22.862-25.506c0.92-0.104,1.849-0.157,2.8-0.157
	h242.981C332.1,77.688,343.594,89.182,343.594,103.351z"/>
<path style="fill:#494B5B;" d="M229.51,48.978h-66.136c-4.867,0-8.812-3.946-8.812-8.812V39.68c0-4.867,3.946-8.812,8.812-8.812
	h66.136c4.867,0,8.812,3.946,8.812,8.812v0.486C238.321,45.032,234.376,48.978,229.51,48.978z"/>
<path style="fill:#F4F4F4;" d="M343.595,103.351v356.153c0,14.179-11.494,25.663-25.663,25.663H154.416L274.214,77.688h43.719
	C332.101,77.688,343.595,89.182,343.595,103.351z"/>
<path style="fill:#4BC999;" d="M336.941,353.283v81.416c-38.153,0-62.9-0.207-78.853-4.795c-9.197-2.646-16.986-8.804-21.848-17.048
	l0,0c0-0.003,0-0.007-0.003-0.01c-3.045-8.424-7.864-27.793-0.494-42.342c4.882-9.642,17.375-9.923,21.144-17.22h80.055V353.283z"/>
<path style="fill:#1E9E67;" d="M269.975,254.485l40.618,81.233l-34.581-18.659c0,0-6.375,11.527-19.127,36.223
	c-3.769,7.297-8.095,15.747-12.976,25.389c-7.37,14.549-10.719,25.75-7.674,34.174l-42.862-72.682
	c-4.252-7.216-4.548-16.105-0.775-23.584l17.733-35.199l-32.016-18.663L269.975,254.485z"/>
<path style="fill:#4BC999;" d="M509.064,294.839c-3.135,20.647-8.746,40.469-16.509,59.183c-1.39,3.354-2.853,6.666-4.389,9.947
	c-3.406,1.306-6.98,2.163-10.658,2.361c-10.794,0.596-17.283-10.083-25.485-9.697l-40.03-69.329l70.51-40.709
	C493.913,266.355,502.868,282.008,509.064,294.839z"/>
<path style="fill:#1E9E67;" d="M492.554,354.022c-11.922,28.745-28.933,54.857-49.915,77.187l-29.602,1.693l-0.105,25.36
	c-1.776,1.39-3.584,2.748-5.402,4.086L359.915,394.7l50.04-75.797l1.139,39.278c0,0,13.166-0.24,40.929-1.546
	c8.202-0.387,17.69-0.867,28.473-1.463C484.874,354.931,488.897,354.565,492.554,354.022z"/>
<path style="fill:#4BC999;" d="M315.453,256.818l-70.509-40.708c19.077-33.042,31.629-54.369,43.58-65.891
	c6.89-6.642,16.118-10.308,25.687-10.397l0,0c0.003,0.002,0.006,0.004,0.011,0.002c8.818,1.576,28.001,7.085,36.917,20.743
	c5.91,9.049-0.093,20.009,4.342,26.922L315.453,256.818z"/>
<path style="fill:#1E9E67;" d="M434.498,248.223l-90.66-5.44l33.449-20.618c0,0-6.795-11.284-21.807-34.677
	c-4.435-6.912-9.589-14.884-15.499-23.931c-8.915-13.657-16.942-22.157-25.759-23.733l84.376-0.778
	c8.376-0.074,16.221,4.113,20.812,11.121l21.617,32.957l32.17-18.395L434.498,248.223z"/>
<g>
</g>
<g>
</g>
<g>
</g>
<g>
</g>
<g>
</g>
<g>
</g>
<g>
</g>
<g>
</g>
<g>
</g>
<g>
</g>
<g>
</g>
<g>
</g>
<g>
</g>
<g>
</g>
<g>
</g>
</svg>
