<?xml version="1.0" encoding="iso-8859-1"?>
<!-- Generator: Adobe Illustrator 19.0.0, SVG Export Plug-In . SVG Version: 6.00 Build 0)  -->
<svg version="1.1" id="Capa_1" xmlns="http://www.w3.org/2000/svg" xmlns:xlink="http://www.w3.org/1999/xlink" x="0px" y="0px"
	 viewBox="0 0 512 512" style="enable-background:new 0 0 512 512;" xml:space="preserve">
<path style="fill:#FF525D;" d="M511.479,256.521c0,137.531-108.678,249.681-244.843,255.26C263.112,511.927,259.566,512,256,512
	c-45.913,0-88.99-12.107-126.228-33.317c-0.615-0.355-1.23-0.699-1.846-1.064c-8.978-5.203-17.612-10.949-25.861-17.185
	c-14.244-10.772-27.331-23.004-39.031-36.476C24.088,379.13,0.521,320.568,0.521,256.521C0.521,115.424,114.903,1.042,256,1.042
	S511.479,115.424,511.479,256.521z"/>
<circle style="fill:#FF6E7C;" cx="256" cy="213.904" r="212.861"/>
<g>
	<path style="fill:#FFD15C;" d="M127.9,356.707v66.425H75.488c-1.729,0-3.427,0.168-5.064,0.489v-54.155
		c8.414,1.912,17.455,1.53,26.176-1.591L127.9,356.707z"/>
	<path style="fill:#FFD15C;" d="M260.429,257.505L250,424.923c-2.968-1.163,4.248-1.789,0.882-1.789h-47.93V278.021L260.429,257.505
		z"/>
</g>
<path style="fill:#EFD152;" d="M260.429,296.568v51.068c0,0-31.921-5.039-57.476,20.516v-51.068L260.429,296.568z"/>
<g>
	<path style="fill:#FFD15C;" d="M163.163,30.365l-63.112,80.605c-9.24,3.305-54.303-8.709-59.657-28.117
		c-5.201-8.093-8.077-17.593-8.077-27.399c0-5.646,0.949-11.382,2.968-17.012C44.677,12.114,73.637-1.609,99.966,7.8L163.163,30.365
		z"/>
	<path style="fill:#FFD15C;" d="M292.311,142.838l-2.417-6.762c-6.95-19.462-25.405-31.502-44.986-31.217l18.918-6.753
		c24.462-8.735,37.221-35.645,28.485-60.107l-2.417-6.761c-8.735-24.462-35.645-37.221-60.122-28.485L163.162,26.54L62.561,62.46
		c-9.24,3.305-16.813,9.194-22.167,16.568c-8.873,12.147-11.749,28.318-6.318,43.539l2.402,6.747
		c6.955,19.488,25.443,31.525,45.035,31.219l-18.952,6.768c-24.462,8.735-37.221,35.645-28.485,60.107l2.402,6.747
		c7.089,19.863,26.156,31.997,46.165,31.199l-20.081,7.169c-24.462,8.735-37.221,35.661-28.485,60.123l2.402,6.747
		c5.614,15.742,18.771,26.634,33.946,30.077c8.414,1.912,17.455,1.53,26.176-1.591l31.3-11.167v-0.016l75.054-26.787l57.476-20.516
		l3.396-1.209c24.462-8.735,37.221-35.645,28.485-60.122l-2.417-6.747c-7.089-19.849-26.143-31.991-46.155-31.198l20.087-7.17
		C288.287,194.209,301.046,167.299,292.311,142.838z"/>
</g>
<path style="fill:#EDBB4C;" d="M109.248,258.126l18.652-6.655v-0.016l13.282-4.74c-5.318,0.611-10.616,0.31-15.686-0.843
	c-15.175-3.442-28.332-14.335-33.946-30.077l-2.403-6.746c-7.473-20.924,0.793-43.641,18.647-55.244l20.107-7.174v-0.016
	l13.282-4.74c-5.318,0.611-10.616,0.31-15.686-0.843c-15.175-3.442-28.332-14.334-33.946-30.077l-2.403-6.747
	c-8.735-24.461,4.024-51.387,28.485-60.122L62.561,62.445C38.099,71.18,25.34,98.105,34.076,122.568l2.402,6.747
	c5.614,15.742,18.771,26.634,33.947,30.077c4.061,0.923,8.268,1.297,12.513,1.101l-20.377,6.793
	c-24.462,8.735-37.221,35.661-28.485,60.123l2.402,6.746c5.614,15.742,18.771,26.634,33.947,30.077
	c4.542,1.031,9.268,1.37,14.026,0.995l-21.89,7.296c-24.462,8.735-37.221,35.661-28.485,60.123l2.402,6.746
	c5.614,15.742,18.771,26.634,33.946,30.077v38.246c23.821-18.779,57.476-12.758,57.476-12.758v-38.246v-0.016l13.282-4.74
	c-5.318,0.611-10.616,0.31-15.686-0.843c-15.175-3.442-28.332-14.335-33.946-30.077l-2.403-6.747
	C81.473,292.799,90.388,269.416,109.248,258.126z"/>
<path style="fill:#E8E8E8;" d="M277.273,447.213v4.025c0,14.578-11.815,26.382-26.393,26.382h-10.376
	c14.588,0,26.403,11.815,26.403,26.393v4.025c0,1.272-0.094,2.524-0.271,3.744C263.112,511.927,259.566,512,256,512
	c-77.04,0-146.124-34.099-192.965-88.041c2.284-1.23,4.765-2.127,7.383-2.628c1.648-0.323,3.347-0.49,5.078-0.49H250.88
	c3.368,0,6.58,0.615,9.552,1.783C270.276,426.43,277.273,436.013,277.273,447.213z"/>
<path style="fill:#D6D6D6;" d="M75.496,420.841h51.304c-1.731,0-3.431,0.167-5.068,0.49c-12.148,2.346-21.325,13.045-21.325,25.882
	v4.025c0,3.233,0.584,6.34,1.658,9.197c-14.244-10.772-27.331-23.004-39.031-36.476c2.284-1.23,4.765-2.127,7.393-2.628
	C72.066,421.008,73.765,420.841,75.496,420.841z"/>
<g>
	<circle style="fill:#FFDC8D;" cx="248.742" cy="46.164" r="23.097"/>
	<circle style="fill:#FFDC8D;" cx="248.742" cy="158.835" r="23.097"/>
	<circle style="fill:#FFDC8D;" cx="248.742" cy="261.705" r="23.097"/>
</g>
<path style="fill:#4BC999;" d="M336.776,353.606v81.251c-38.076,0-62.772-0.206-78.693-4.785
	c-9.178-2.64-16.951-8.786-21.803-17.013l0,0c0-0.004,0-0.007-0.003-0.01c-3.039-8.407-7.848-27.737-0.493-42.256
	c4.872-9.623,17.339-9.903,21.1-17.185h79.892V353.606z"/>
<path style="fill:#1E9E67;" d="M269.947,255.009l40.536,81.068l-34.511-18.621c0,0-6.362,11.504-19.088,36.15
	c-3.761,7.282-8.078,15.715-12.949,25.337c-7.355,14.52-10.697,25.698-7.658,34.105l-42.775-72.534
	c-4.243-7.201-4.539-16.072-0.774-23.536l17.697-35.128l-31.951-18.625L269.947,255.009z"/>
<path style="fill:#4BC999;" d="M508.549,295.281c-3.128,20.605-8.728,40.387-16.476,59.063c-1.387,3.347-2.847,6.653-4.38,9.927
	c-3.399,1.303-6.966,2.159-10.636,2.357c-10.772,0.594-17.247-10.063-25.433-9.677l-39.949-69.188l70.366-40.626
	C493.429,266.855,502.365,282.476,508.549,295.281z"/>
<path style="fill:#1E9E67;" d="M492.073,354.344c-11.898,28.687-28.874,54.746-49.813,77.03l-29.542,1.689l-0.104,25.308
	c-1.773,1.387-3.577,2.742-5.391,4.077l-47.519-67.509l49.938-75.643l1.137,39.198c0,0,13.139-0.24,40.845-1.543
	c8.186-0.386,17.654-0.865,28.416-1.46C484.409,355.251,488.424,354.886,492.073,354.344z"/>
<path style="fill:#4BC999;" d="M315.332,257.338l-70.365-40.625c19.038-32.975,31.565-54.259,43.491-65.757
	c6.876-6.629,16.085-10.287,25.636-10.376l0,0c0.003,0.002,0.006,0.004,0.011,0.002c8.8,1.572,27.944,7.071,36.842,20.701
	c5.898,9.03-0.093,19.968,4.333,26.867L315.332,257.338z"/>
<path style="fill:#1E9E67;" d="M434.134,248.76l-90.475-5.429l33.381-20.576c0,0-6.781-11.261-21.763-34.606
	c-4.426-6.898-9.57-14.853-15.467-23.883c-8.897-13.629-16.908-22.112-25.706-23.684l84.204-0.777
	c8.359-0.074,16.188,4.104,20.77,11.098l21.573,32.89l32.105-18.358L434.134,248.76z"/>
<g>
</g>
<g>
</g>
<g>
</g>
<g>
</g>
<g>
</g>
<g>
</g>
<g>
</g>
<g>
</g>
<g>
</g>
<g>
</g>
<g>
</g>
<g>
</g>
<g>
</g>
<g>
</g>
<g>
</g>
</svg>
