<?xml version="1.0" encoding="iso-8859-1"?>
<!-- Generator: Adobe Illustrator 19.0.0, SVG Export Plug-In . SVG Version: 6.00 Build 0)  -->
<svg version="1.1" id="Capa_1" xmlns="http://www.w3.org/2000/svg" xmlns:xlink="http://www.w3.org/1999/xlink" x="0px" y="0px"
	 viewBox="0 0 512 512" style="enable-background:new 0 0 512 512;" xml:space="preserve">
<path style="fill:#34ABE0;" d="M512,256c0,119.453-81.815,219.794-192.46,248.048v0.01C299.227,509.241,277.932,512,256,512
	c-44.857,0-87.009-11.536-123.664-31.807c-13.458-7.429-26.175-16.039-38.003-25.704c-0.094-0.063-0.178-0.136-0.261-0.209
	c-12.57-10.261-24.137-21.703-34.534-34.158v-0.01C22.361,375.683,0,318.454,0,256C0,114.615,114.615,0,256,0S512,114.615,512,256z"
	/>
<circle style="fill:#72BBE8;" cx="256" cy="213.295" r="213.295"/>
<path style="fill:#EDBB4C;" d="M380.897,218.655c0,96.141-71.241,175.637-163.798,188.604c-0.01,0-0.01,0-0.021,0
	c-8.704,1.223-17.596,1.849-26.634,1.849C85.264,409.109,0,323.845,0,218.655C0,113.476,85.264,28.212,190.443,28.212
	c9.038,0,17.93,0.627,26.634,1.849c0.01,0,0.01,0,0.021,0C309.656,43.029,380.897,122.525,380.897,218.655z"/>
<path style="fill:#FFD15C;" d="M380.897,218.655c0,96.141-71.241,175.637-163.798,188.604c-0.01,0-0.01,0-0.021,0
	c-92.557-12.967-163.798-92.463-163.798-188.604c0-96.131,71.241-175.626,163.798-188.594c0.01,0,0.01,0,0.021,0
	C309.656,43.029,380.897,122.525,380.897,218.655z"/>
<g>
	<circle style="fill:#FFDC8D;" cx="296.176" cy="135.481" r="32.517"/>
	<circle style="fill:#FFDC8D;" cx="259.73" cy="88.074" r="18.023"/>
</g>
<path style="fill:#EDBB4C;" d="M259.667,228.114c0-11.542-9.356-20.898-20.898-20.898s-20.898,9.356-20.898,20.898
	c0,15.123-12.303,27.426-27.425,27.426c-15.123,0-27.426-12.303-27.426-27.426c0-11.542-9.356-20.898-20.898-20.898
	s-20.898,9.356-20.898,20.898c0,30.887,20.339,57.108,48.324,65.99v113.46c0,11.542,9.356,20.898,20.898,20.898
	s20.898-9.356,20.898-20.898v-113.46C239.329,285.221,259.667,259.001,259.667,228.114z"/>
<path style="fill:#E8E8E8;" d="M310.471,465.418c6.813,6.813,11.024,16.227,11.024,26.624c0,4.2-0.69,8.234-1.954,12.006v0.01
	C299.227,509.241,277.932,512,256,512c-44.857,0-87.009-11.536-123.664-31.807c-13.458-7.429-26.175-16.039-38.003-25.704
	c0.888-0.063,1.797-0.094,2.706-0.094c-1.003,0-1.985-0.042-2.968-0.115c-12.57-10.261-24.137-21.703-34.534-34.158v-0.01
	c-0.104-1.108-0.157-2.236-0.157-3.375c0-20.793,16.865-37.648,37.658-37.648h186.807c20.793,0,37.648,16.854,37.648,37.648
	c0,20.804-16.854,37.658-37.648,37.658C294.243,454.395,303.658,458.606,310.471,465.418z"/>
<path style="fill:#D6D6D6;" d="M168.082,454.395c-16.656,0-30.783,10.815-35.746,25.799c-13.458-7.429-26.175-16.039-38.003-25.704
	c0.888-0.063,1.797-0.094,2.706-0.094c-1.003,0-1.985-0.042-2.968-0.115c-12.57-10.261-24.137-21.703-34.534-34.158
	c-0.104-1.118-0.157-2.247-0.157-3.385c0-20.793,16.865-37.648,37.658-37.648h71.043c-20.793,0-37.648,16.854-37.648,37.648
	C130.435,437.541,147.289,454.395,168.082,454.395z"/>
<g>
	<path style="fill:#F4F4F4;" d="M285.596,432.091h-20.374c-9.521,0-17.24-7.719-17.24-17.24l0,0c0-9.521,7.719-17.24,17.24-17.24
		h20.374c9.521,0,17.24,7.719,17.24,17.24l0,0C302.835,424.373,295.117,432.091,285.596,432.091z"/>
	<path style="fill:#F4F4F4;" d="M285.596,505.754h-20.374c-9.521,0-17.24-7.719-17.24-17.24l0,0c0-9.521,7.719-17.24,17.24-17.24
		h20.374c9.521,0,17.24,7.719,17.24,17.24l0,0C302.835,498.035,295.117,505.754,285.596,505.754z"/>
</g>
<path style="fill:#4BC999;" d="M336.941,353.283v81.416c-38.153,0-62.9-0.207-78.853-4.795c-9.197-2.646-16.986-8.804-21.848-17.048
	l0,0c0-0.003,0-0.007-0.003-0.01c-3.045-8.424-7.864-27.793-0.494-42.342c4.882-9.642,17.375-9.923,21.144-17.22h80.055V353.283z"/>
<path style="fill:#1E9E67;" d="M269.976,254.485l40.618,81.233l-34.581-18.659c0,0-6.375,11.527-19.127,36.223
	c-3.769,7.297-8.095,15.747-12.976,25.389c-7.37,14.549-10.719,25.75-7.674,34.174l-42.862-72.682
	c-4.252-7.216-4.548-16.105-0.775-23.584l17.733-35.199l-32.016-18.663L269.976,254.485z"/>
<path style="fill:#4BC999;" d="M509.064,294.839c-3.135,20.647-8.746,40.469-16.509,59.183c-1.39,3.354-2.853,6.666-4.389,9.947
	c-3.406,1.306-6.98,2.163-10.658,2.361c-10.794,0.596-17.283-10.083-25.485-9.697l-40.03-69.329l70.51-40.709
	C493.913,266.355,502.868,282.008,509.064,294.839z"/>
<path style="fill:#1E9E67;" d="M492.554,354.022c-11.922,28.745-28.933,54.857-49.915,77.187l-29.602,1.693l-0.104,25.36
	c-1.776,1.39-3.584,2.748-5.402,4.086L359.915,394.7l50.04-75.797l1.139,39.278c0,0,13.166-0.24,40.929-1.546
	c8.202-0.387,17.69-0.867,28.473-1.463C484.874,354.931,488.897,354.565,492.554,354.022z"/>
<path style="fill:#4BC999;" d="M315.453,256.818l-70.509-40.708c19.077-33.042,31.629-54.369,43.58-65.891
	c6.89-6.642,16.118-10.308,25.687-10.397l0,0c0.003,0.002,0.006,0.004,0.011,0.002c8.818,1.576,28.001,7.085,36.917,20.743
	c5.91,9.049-0.093,20.009,4.342,26.922L315.453,256.818z"/>
<path style="fill:#1E9E67;" d="M434.498,248.223l-90.66-5.44l33.449-20.618c0,0-6.795-11.284-21.807-34.677
	c-4.435-6.912-9.589-14.884-15.499-23.931c-8.915-13.657-16.942-22.157-25.759-23.733l84.375-0.778
	c8.376-0.074,16.221,4.113,20.812,11.121l21.617,32.957l32.17-18.395L434.498,248.223z"/>
<g>
</g>
<g>
</g>
<g>
</g>
<g>
</g>
<g>
</g>
<g>
</g>
<g>
</g>
<g>
</g>
<g>
</g>
<g>
</g>
<g>
</g>
<g>
</g>
<g>
</g>
<g>
</g>
<g>
</g>
</svg>
