<?xml version="1.0" encoding="iso-8859-1"?>
<!-- Generator: Adobe Illustrator 19.0.0, SVG Export Plug-In . SVG Version: 6.00 Build 0)  -->
<svg version="1.1" id="Capa_1" xmlns="http://www.w3.org/2000/svg" xmlns:xlink="http://www.w3.org/1999/xlink" x="0px" y="0px"
	 viewBox="0 0 512 512" style="enable-background:new 0 0 512 512;" xml:space="preserve">
<circle style="fill:#FFD15C;" cx="256" cy="256" r="256"/>
<circle style="fill:#FFDC8D;" cx="256" cy="213.295" r="213.295"/>
<path style="fill:#41B787;" d="M372.382,105.817h-26.454V55.413c0-15.967-12.991-28.958-28.958-28.958H195.017
	c-15.967,0-28.958,12.99-28.958,28.958v50.404h-26.454V55.413c0-30.554,24.857-55.412,55.412-55.412H316.97
	c30.555,0,55.412,24.858,55.412,55.412V105.817z"/>
<path style="fill:#4BC999;" d="M416.489,118.502v336.959C372.582,490.83,316.774,512,256.003,512
	c-60.782,0-116.6-21.18-160.507-56.56V118.502H416.489z"/>
<path style="fill:#41B787;" d="M416.487,121.128H95.499v15.555h-0.003V455.44c27.7,22.319,60.134,38.985,95.566,48.243V239.425
	c0-37.164,30.128-67.291,67.291-67.291h158.133V121.128z"/>
<path style="fill:#4BC999;" d="M441.734,102.524v34.161h-25.247H95.499H70.266v-34.161c0-18.551,15.045-33.597,33.597-33.597h75.333
	H332.79h75.333C426.688,68.928,441.734,83.973,441.734,102.524z"/>
<path style="fill:#41B787;" d="M187.126,68.928h-83.263c-18.551,0-33.597,15.045-33.597,33.597v34.161h25.233h58.029v-34.161
	C153.529,83.973,168.575,68.928,187.126,68.928z"/>
<path style="fill:#E8E8E8;" d="M248.602,346.205v51.663c-24.21,0-39.913-0.131-50.036-3.043
	c-5.836-1.678-10.778-5.587-13.864-10.818l0,0c0-0.002,0-0.004-0.002-0.007c-1.932-5.346-4.99-17.636-0.313-26.868
	c3.097-6.119,11.025-6.297,13.416-10.928h50.799V346.205z"/>
<path style="fill:#D6D6D6;" d="M206.109,283.513l25.775,51.546l-21.943-11.84c0,0-4.045,7.314-12.138,22.986
	c-2.392,4.63-5.137,9.991-8.234,16.11c-4.677,9.233-6.801,16.34-4.869,21.685l-27.198-46.12c-2.698-4.579-2.886-10.219-0.492-14.965
	l11.253-22.336l-20.315-11.842L206.109,283.513z"/>
<path style="fill:#E8E8E8;" d="M296.229,304.338l44.74-25.831c12.105,20.967,19.843,34.631,22.383,44.854
	c1.464,5.893,0.551,12.127-2.437,17.414l0,0c-0.002,0.001-0.004,0.002-0.005,0.005c-3.663,4.346-12.778,13.14-23.112,13.706
	c-6.847,0.377-10.966-6.4-16.172-6.155L296.229,304.338z"/>
<path style="fill:#D6D6D6;" d="M263.183,372.483l31.753-48.095l0.718,24.923c0,0,8.357-0.155,25.975-0.982
	c5.206-0.243,11.221-0.548,18.068-0.925c10.334-0.566,17.551-2.28,21.215-6.626l-26.342,46.614
	c-2.616,4.626-7.407,7.609-12.714,7.909l-24.969,1.423l-0.098,23.514L263.183,372.483z"/>
<path style="fill:#E8E8E8;" d="M234.966,284.994l-44.74-25.831c12.105-20.967,20.07-34.5,27.653-41.812
	c4.372-4.215,10.227-6.541,16.299-6.597l0,0c0.002,0.001,0.004,0.002,0.007,0.001c5.595,1,17.768,4.496,23.426,13.163
	c3.75,5.742-0.06,12.697,2.754,17.083L234.966,284.994z"/>
<path style="fill:#D6D6D6;" d="M310.506,279.54l-57.528-3.452l21.225-13.083c0,0-4.312-7.161-13.838-22.003
	c-2.814-4.386-6.084-9.444-9.835-15.186c-5.657-8.666-10.75-14.06-16.345-15.059l53.54-0.494c5.314-0.047,10.293,2.61,13.206,7.056
	l13.716,20.913l20.413-11.673L310.506,279.54z"/>
<g>
</g>
<g>
</g>
<g>
</g>
<g>
</g>
<g>
</g>
<g>
</g>
<g>
</g>
<g>
</g>
<g>
</g>
<g>
</g>
<g>
</g>
<g>
</g>
<g>
</g>
<g>
</g>
<g>
</g>
</svg>
