<?xml version="1.0" encoding="iso-8859-1"?>
<!-- Generator: Adobe Illustrator 19.0.0, SVG Export Plug-In . SVG Version: 6.00 Build 0)  -->
<svg version="1.1" id="Capa_1" xmlns="http://www.w3.org/2000/svg" xmlns:xlink="http://www.w3.org/1999/xlink" x="0px" y="0px"
	 viewBox="0 0 512 512" style="enable-background:new 0 0 512 512;" xml:space="preserve">
<path style="fill:#FFD15C;" d="M512,256c0,111.355-71.105,206.106-170.381,241.33C314.849,506.828,286.03,512,256,512
	c-99.443,0-185.637-56.696-228.028-139.525C10.083,337.533,0,297.942,0,256c0-13.322,1.014-26.415,2.978-39.194
	C21.849,94.02,127.948,0,256,0C397.385,0,512,114.615,512,256z"/>
<circle style="fill:#FFDC8D;" cx="256" cy="213.295" r="213.295"/>
<path style="fill:#8A4800;" d="M172.813,198.178c-6.274,0-11.359-5.086-11.359-11.359v-34.275
	c0-40.312,19.966-77.866,53.407-100.455c5.199-3.512,12.26-2.145,15.772,3.054c3.512,5.199,2.144,12.26-3.054,15.772
	c-27.179,18.359-43.405,48.875-43.405,81.63v34.275C184.172,193.092,179.086,198.178,172.813,198.178z"/>
<path style="fill:#4BC999;" d="M174.706,134.247c-66.853,19.181-136.605-19.467-155.787-86.32
	c33.426-9.591,67.582-4.721,95.78,10.902C142.876,74.444,165.115,100.821,174.706,134.247z"/>
<path style="fill:#FF525D;" d="M385.526,406.622l-26.697,73.874c-5.465,5.872-11.212,11.494-17.209,16.833
	C314.849,506.828,286.03,512,256,512C114.615,512,0,397.385,0,256c0-13.322,1.014-26.415,2.978-39.194
	c32.099-31.869,76.424-52.088,126.934-52.088h85.786C340.846,164.707,428.032,288.914,385.526,406.622z"/>
<path style="fill:#41B787;" d="M174.706,134.247c-66.853,19.181-136.605-19.467-155.787-86.32L174.706,134.247z"/>
<path style="fill:#EF4152;" d="M215.636,164.728c-3.396,0.324-132.702,13.563-178.583,103.549
	c-14.252,27.951-15.621,65.379-9.08,104.197C10.083,337.533,0,297.942,0,256c0-13.322,1.014-26.415,2.978-39.194
	c32.099-31.869,76.424-52.088,126.934-52.088L215.636,164.728z"/>
<ellipse transform="matrix(-0.2849 -0.9586 0.9586 -0.2849 124.2737 675.8003)" style="fill:#FF6E7C;" cx="314.219" cy="291.544" rx="53.647" ry="25.034"/>
<path style="fill:#4BC999;" d="M336.941,353.283v81.416c-38.153,0-62.9-0.207-78.853-4.795c-9.197-2.646-16.986-8.804-21.848-17.048
	l0,0c0-0.003,0-0.007-0.003-0.01c-3.045-8.424-7.864-27.793-0.494-42.342c4.882-9.642,17.375-9.923,21.144-17.22h80.055V353.283z"/>
<path style="fill:#1E9E67;" d="M269.975,254.485l40.618,81.233l-34.581-18.659c0,0-6.375,11.527-19.127,36.223
	c-3.769,7.297-8.095,15.747-12.976,25.389c-7.37,14.549-10.719,25.75-7.674,34.174l-42.862-72.682
	c-4.252-7.216-4.548-16.105-0.775-23.584l17.733-35.199l-32.016-18.663L269.975,254.485z"/>
<path style="fill:#4BC999;" d="M509.064,294.839c-3.135,20.647-8.746,40.469-16.509,59.183c-1.39,3.354-2.853,6.666-4.389,9.947
	c-3.406,1.306-6.98,2.163-10.658,2.361c-10.794,0.596-17.283-10.083-25.485-9.697l-40.03-69.329l70.51-40.709
	C493.913,266.355,502.868,282.008,509.064,294.839z"/>
<path style="fill:#1E9E67;" d="M492.554,354.022c-11.922,28.745-28.933,54.857-49.915,77.187l-29.602,1.693l-0.105,25.36
	c-1.776,1.39-3.584,2.748-5.402,4.086L359.915,394.7l50.04-75.797l1.139,39.278c0,0,13.166-0.24,40.929-1.546
	c8.202-0.387,17.69-0.867,28.473-1.463C484.874,354.931,488.897,354.565,492.554,354.022z"/>
<path style="fill:#4BC999;" d="M315.453,256.818l-70.509-40.708c19.077-33.042,31.629-54.369,43.58-65.891
	c6.89-6.642,16.118-10.308,25.687-10.397l0,0c0.003,0.002,0.006,0.004,0.011,0.002c8.818,1.576,28.001,7.085,36.917,20.743
	c5.91,9.049-0.093,20.009,4.342,26.922L315.453,256.818z"/>
<path style="fill:#1E9E67;" d="M434.498,248.223l-90.66-5.44l33.449-20.618c0,0-6.795-11.284-21.807-34.677
	c-4.435-6.912-9.589-14.884-15.499-23.931c-8.915-13.657-16.942-22.157-25.759-23.733l84.376-0.778
	c8.376-0.074,16.221,4.113,20.812,11.121l21.617,32.957l32.17-18.395L434.498,248.223z"/>
<g>
</g>
<g>
</g>
<g>
</g>
<g>
</g>
<g>
</g>
<g>
</g>
<g>
</g>
<g>
</g>
<g>
</g>
<g>
</g>
<g>
</g>
<g>
</g>
<g>
</g>
<g>
</g>
<g>
</g>
</svg>
