<?xml version="1.0" encoding="iso-8859-1"?>
<!-- Generator: Adobe Illustrator 19.0.0, SVG Export Plug-In . SVG Version: 6.00 Build 0)  -->
<svg version="1.1" id="Capa_1" xmlns="http://www.w3.org/2000/svg" xmlns:xlink="http://www.w3.org/1999/xlink" x="0px" y="0px"
	 viewBox="0 0 511.999 511.999" style="enable-background:new 0 0 511.999 511.999;" xml:space="preserve">
<circle style="fill:#FFD15C;" cx="255.999" cy="255.999" r="255.999"/>
<circle style="fill:#FFDC8D;" cx="255.999" cy="213.295" r="213.295"/>
<g>
	<path style="fill:#EDBB4C;" d="M256.005,209.466c25.8,0,46.735,20.937,46.735,46.735s-20.937,46.735-46.735,46.735
		c-25.839,0-46.735-20.937-46.735-46.735S230.165,209.466,256.005,209.466z"/>
	<path style="fill:#EDBB4C;" d="M299.905,335.784l55.009,97.462c6.301,11.164,1.598,25.386-10.17,30.469
		c-27.212,11.755-57.223,18.265-88.738,18.265c-32.297,0-62.986-6.826-90.725-19.127c-11.734-5.204-16.328-19.471-9.91-30.586
		l55.957-96.919c4.974-8.615,15.198-12.791,24.738-9.968c6.321,1.87,13.013,2.875,19.94,2.875c6.643,0,13.076-0.925,19.173-2.653
		C284.782,322.876,294.998,327.09,299.905,335.784z"/>
	<path style="fill:#EDBB4C;" d="M457.201,257.978h-112.11c-9.96,0-18.452-6.928-20.799-16.608
		c-3.173-13.082-10.011-24.735-19.371-33.804c-7.158-6.935-8.581-17.894-3.514-26.476l56.881-96.352
		c6.565-11.121,21.318-14.017,31.664-6.288c22.321,16.673,41.424,37.41,56.211,61.121c17.468,27.988,28.924,60.1,32.571,94.542
		C480.088,246.874,470.033,257.978,457.201,257.978z"/>
	<path style="fill:#EDBB4C;" d="M207.08,207.568c-9.36,9.07-16.198,20.722-19.371,33.804c-2.348,9.68-10.839,16.608-20.799,16.608
		H54.802c-12.873,0-22.887-11.169-21.525-23.969c4.397-41.305,20.025-79.268,43.761-110.743
		c12.83-17.015,28.034-32.137,45.103-44.878c10.313-7.698,25.033-4.725,31.575,6.357l56.878,96.347
		C215.659,189.674,214.236,200.633,207.08,207.568z"/>
</g>
<path style="fill:#4BC999;" d="M336.944,353.282v81.416c-38.153,0-62.9-0.207-78.853-4.795c-9.197-2.646-16.986-8.804-21.848-17.047
	l0,0c0-0.003,0-0.007-0.003-0.01c-3.045-8.424-7.864-27.793-0.494-42.342c4.882-9.642,17.375-9.923,21.143-17.22h80.055V353.282z"/>
<path style="fill:#1E9E67;" d="M269.979,254.484l40.618,81.233l-34.581-18.659c0,0-6.375,11.527-19.127,36.223
	c-3.769,7.297-8.095,15.747-12.976,25.389c-7.37,14.549-10.719,25.75-7.674,34.174l-42.862-72.682
	c-4.252-7.216-4.548-16.105-0.775-23.584l17.733-35.199l-32.016-18.663L269.979,254.484z"/>
<path style="fill:#4BC999;" d="M509.067,294.838c-3.135,20.647-8.746,40.469-16.509,59.183c-1.39,3.354-2.853,6.666-4.389,9.947
	c-3.406,1.306-6.98,2.163-10.658,2.361c-10.794,0.596-17.283-10.083-25.485-9.697l-40.03-69.329l70.51-40.709
	C493.916,266.354,502.871,282.007,509.067,294.838z"/>
<path style="fill:#1E9E67;" d="M492.558,354.021c-11.922,28.745-28.933,54.857-49.915,77.186l-29.602,1.693l-0.104,25.36
	c-1.776,1.39-3.584,2.748-5.402,4.086l-47.616-67.647l50.04-75.797l1.139,39.278c0,0,13.166-0.24,40.929-1.546
	c8.202-0.387,17.69-0.867,28.473-1.463C484.878,354.93,488.9,354.564,492.558,354.021z"/>
<path style="fill:#4BC999;" d="M315.456,256.818l-70.509-40.708c19.077-33.042,31.629-54.369,43.579-65.891
	c6.89-6.642,16.118-10.308,25.688-10.397l0,0c0.003,0.002,0.006,0.004,0.011,0.002c8.818,1.576,28.001,7.085,36.917,20.743
	c5.91,9.049-0.093,20.009,4.342,26.922L315.456,256.818z"/>
<path style="fill:#1E9E67;" d="M434.5,248.222l-90.659-5.44l33.449-20.618c0,0-6.795-11.284-21.807-34.677
	c-4.435-6.912-9.589-14.883-15.499-23.931c-8.915-13.657-16.942-22.157-25.759-23.733l84.375-0.778
	c8.376-0.074,16.221,4.113,20.812,11.121l21.617,32.957l32.17-18.395L434.5,248.222z"/>
<g>
</g>
<g>
</g>
<g>
</g>
<g>
</g>
<g>
</g>
<g>
</g>
<g>
</g>
<g>
</g>
<g>
</g>
<g>
</g>
<g>
</g>
<g>
</g>
<g>
</g>
<g>
</g>
<g>
</g>
</svg>
