<?xml version="1.0" encoding="iso-8859-1"?>
<!-- Generator: Adobe Illustrator 19.0.0, SVG Export Plug-In . SVG Version: 6.00 Build 0)  -->
<svg version="1.1" id="Capa_1" xmlns="http://www.w3.org/2000/svg" xmlns:xlink="http://www.w3.org/1999/xlink" x="0px" y="0px"
	 viewBox="0 0 511.999 511.999" style="enable-background:new 0 0 511.999 511.999;" xml:space="preserve">
<circle style="fill:#FF525D;" cx="255.999" cy="255.999" r="255.999"/>
<circle style="fill:#FF6E7C;" cx="255.999" cy="213.295" r="213.295"/>
<path style="fill:#279FC9;" d="M277.967,231.026v280.043c-7.241,0.616-14.566,0.93-21.964,0.93c-37.115,0-72.38-7.899-104.207-22.1
	c-14.9-6.646-29.038-14.67-42.266-23.928V231.026c0-21.128,7.795-40.437,20.668-55.223c9.519-10.93,14.451-25.13,14.451-39.622
	V49.089c0-10.219,3.124-19.717,8.474-27.575C161.963,8.526,176.853,0,193.738,0c6.614,0,12.936,1.317,18.704,3.699
	c0.825,0.334,1.64,0.7,2.435,1.076c5.057,2.414,9.644,5.684,13.563,9.613c8.892,8.871,14.388,21.149,14.388,34.701v87.092
	c0,14.493,4.942,28.693,14.472,39.622C270.172,190.589,277.967,209.899,277.967,231.026z"/>
<path style="fill:#34ABE0;" d="M277.967,231.026v280.043c-7.241,0.616-14.566,0.93-21.964,0.93c-37.115,0-72.38-7.899-104.207-22.1
	V231.026c0-21.128,7.805-40.437,20.668-55.223c9.519-10.93,14.461-25.13,14.461-39.622V49.089c0-19.54,11.421-36.425,27.951-44.314
	c5.057,2.414,9.644,5.684,13.563,9.613c8.892,8.871,14.388,21.149,14.388,34.701v87.092c0,14.493,4.942,28.693,14.472,39.622
	C270.172,190.589,277.967,209.899,277.967,231.026z"/>
<path style="fill:#5C5560;" d="M208.743,49.528v200.307h-29.999V49.089c0-8.735,7.523-15.767,16.447-14.932
	C202.954,34.9,208.743,41.723,208.743,49.528z"/>
<path style="fill:#E8E8E8;" d="M208.743,250.89v256.752c-10.23-1.902-20.24-4.42-29.999-7.513V250.89H208.743z"/>
<rect x="178.74" y="244.61" style="fill:#279FC9;" width="29.998" height="14.999"/>
<g>
	<rect x="178.74" y="178.197" style="fill:#FCFCFC;" width="29.999" height="20.449"/>
	<rect x="178.74" y="109.129" style="fill:#FCFCFC;" width="29.999" height="20.449"/>
	<rect x="178.74" y="302.278" style="fill:#FCFCFC;" width="29.999" height="20.449"/>
	<rect x="178.74" y="240.232" style="fill:#FCFCFC;" width="29.999" height="20.459"/>
	<rect x="178.74" y="426.359" style="fill:#FCFCFC;" width="29.999" height="20.459"/>
	<rect x="178.74" y="364.324" style="fill:#FCFCFC;" width="29.999" height="20.449"/>
</g>
<path style="fill:#4BC999;" d="M336.944,353.282v81.416c-38.153,0-62.9-0.207-78.853-4.795c-9.197-2.646-16.986-8.804-21.848-17.047
	l0,0c0-0.003,0-0.007-0.004-0.01c-3.045-8.424-7.864-27.793-0.494-42.342c4.882-9.642,17.375-9.923,21.143-17.22h80.056V353.282z"/>
<path style="fill:#1E9E67;" d="M269.979,254.484l40.618,81.233l-34.581-18.659c0,0-6.375,11.527-19.127,36.223
	c-3.769,7.297-8.095,15.747-12.976,25.389c-7.37,14.549-10.719,25.75-7.674,34.174l-42.862-72.682
	c-4.252-7.216-4.548-16.105-0.775-23.584l17.733-35.199l-32.016-18.663L269.979,254.484z"/>
<path style="fill:#4BC999;" d="M509.067,294.838c-3.135,20.647-8.746,40.469-16.509,59.183c-1.39,3.354-2.853,6.666-4.389,9.947
	c-3.406,1.306-6.98,2.163-10.658,2.361c-10.794,0.596-17.283-10.083-25.485-9.697l-40.03-69.329l70.51-40.709
	C493.916,266.354,502.871,282.007,509.067,294.838z"/>
<path style="fill:#1E9E67;" d="M492.558,354.021c-11.922,28.745-28.933,54.857-49.915,77.186l-29.602,1.693l-0.104,25.36
	c-1.776,1.39-3.584,2.748-5.402,4.086l-47.616-67.647l50.04-75.797l1.139,39.278c0,0,13.166-0.24,40.929-1.546
	c8.202-0.387,17.69-0.867,28.473-1.463C484.878,354.93,488.9,354.564,492.558,354.021z"/>
<path style="fill:#4BC999;" d="M315.456,256.818l-70.509-40.708c19.077-33.042,31.629-54.369,43.579-65.891
	c6.89-6.642,16.117-10.308,25.687-10.397l0,0c0.003,0.002,0.006,0.004,0.011,0.002c8.818,1.576,28.001,7.085,36.917,20.743
	c5.91,9.049-0.093,20.009,4.342,26.922L315.456,256.818z"/>
<path style="fill:#1E9E67;" d="M434.5,248.222l-90.659-5.44l33.449-20.618c0,0-6.795-11.284-21.807-34.677
	c-4.435-6.912-9.589-14.883-15.499-23.931c-8.915-13.657-16.942-22.157-25.759-23.733l84.375-0.778
	c8.376-0.074,16.221,4.113,20.812,11.121l21.617,32.957l32.17-18.395L434.5,248.222z"/>
<g>
</g>
<g>
</g>
<g>
</g>
<g>
</g>
<g>
</g>
<g>
</g>
<g>
</g>
<g>
</g>
<g>
</g>
<g>
</g>
<g>
</g>
<g>
</g>
<g>
</g>
<g>
</g>
<g>
</g>
</svg>
