<?xml version="1.0" encoding="iso-8859-1"?>
<!-- Generator: Adobe Illustrator 19.0.0, SVG Export Plug-In . SVG Version: 6.00 Build 0)  -->
<svg version="1.1" id="Capa_1" xmlns="http://www.w3.org/2000/svg" xmlns:xlink="http://www.w3.org/1999/xlink" x="0px" y="0px"
	 viewBox="0 0 512 512" style="enable-background:new 0 0 512 512;" xml:space="preserve">
<path style="fill:#34ABE0;" d="M512,256c0,55.087-17.408,106.13-47.02,147.895c-20.031,28.254-45.641,52.266-75.233,70.426
	C350.824,498.218,305.016,512,256,512c-49.027,0-94.824-13.782-133.747-37.679c-29.592-18.16-55.202-42.172-75.233-70.426
	C17.408,362.13,0,311.097,0,256C0,114.615,114.615,0,256,0S512,114.615,512,256z"/>
<circle style="fill:#72BBE8;" cx="256" cy="213.295" r="213.295"/>
<path style="fill:#EDBB4C;" d="M308.242,210.023c-8.656,0-15.673-7.018-15.673-15.673v-88.815c0-40.907-33.281-74.188-74.188-74.188
	s-74.188,33.281-74.188,74.188v88.815c0,8.656-7.018,15.673-15.673,15.673s-15.673-7.018-15.673-15.673v-88.815
	C112.846,47.343,160.189,0,218.381,0s105.535,47.343,105.535,105.535v88.815C323.915,203.007,316.898,210.023,308.242,210.023z"/>
<path style="fill:#EF4152;" d="M389.747,141.061v333.26C350.824,498.218,305.016,512,256,512
	c-49.027,0-94.824-13.782-133.747-37.679c-29.592-18.16-55.202-42.172-75.233-70.426V141.061H389.747z"/>
<path style="fill:#FF525D;" d="M464.98,141.061v262.834C418.607,469.305,342.288,512,256,512
	c-49.027,0-94.824-13.782-133.747-37.679v-333.26H464.98z"/>
<path style="fill:#FFD15C;" d="M383.474,210.023c-8.656,0-15.673-7.018-15.673-15.673v-88.815c0-40.907-33.281-74.188-74.188-74.188
	s-74.188,33.281-74.188,74.188v88.815c0,8.656-7.018,15.673-15.673,15.673s-15.673-7.018-15.673-15.673v-88.815
	C188.079,47.343,235.422,0,293.613,0s105.535,47.343,105.535,105.535v88.815C399.148,203.007,392.13,210.023,383.474,210.023z"/>
<path style="fill:#E8E8E8;" d="M286.226,386.193v51.663c-24.21,0-39.913-0.131-50.036-3.043
	c-5.836-1.678-10.778-5.587-13.864-10.818l0,0c0-0.002,0-0.004-0.002-0.007c-1.932-5.346-4.99-17.636-0.313-26.868
	c3.097-6.119,11.025-6.297,13.416-10.928h50.799V386.193z"/>
<path style="fill:#D6D6D6;" d="M243.733,323.501l25.775,51.546l-21.943-11.84c0,0-4.045,7.314-12.138,22.986
	c-2.392,4.63-5.137,9.991-8.234,16.11c-4.677,9.233-6.801,16.34-4.869,21.685l-27.198-46.12c-2.698-4.579-2.886-10.219-0.492-14.965
	l11.253-22.336l-20.315-11.842L243.733,323.501z"/>
<path style="fill:#E8E8E8;" d="M333.852,344.326l44.74-25.831c12.105,20.967,19.843,34.631,22.383,44.854
	c1.465,5.893,0.551,12.127-2.437,17.414l0,0c-0.002,0.001-0.004,0.002-0.005,0.005c-3.663,4.346-12.778,13.14-23.112,13.706
	c-6.847,0.377-10.966-6.4-16.172-6.155L333.852,344.326z"/>
<path style="fill:#D6D6D6;" d="M300.805,412.471l31.753-48.095l0.718,24.923c0,0,8.357-0.155,25.975-0.982
	c5.206-0.243,11.221-0.548,18.068-0.925c10.334-0.566,17.551-2.28,21.215-6.626l-26.342,46.614
	c-2.616,4.626-7.407,7.609-12.714,7.909l-24.969,1.423l-0.098,23.514L300.805,412.471z"/>
<path style="fill:#E8E8E8;" d="M272.59,324.982l-44.74-25.831c12.105-20.967,20.07-34.5,27.653-41.812
	c4.372-4.215,10.227-6.541,16.299-6.597l0,0c0.002,0.001,0.004,0.002,0.007,0.001c5.595,1,17.768,4.496,23.426,13.163
	c3.75,5.742-0.06,12.697,2.754,17.083L272.59,324.982z"/>
<path style="fill:#D6D6D6;" d="M348.13,319.529l-57.528-3.452l21.225-13.083c0,0-4.312-7.161-13.838-22.003
	c-2.814-4.386-6.084-9.444-9.835-15.185c-5.657-8.666-10.75-14.06-16.345-15.059l53.54-0.494c5.314-0.047,10.293,2.61,13.206,7.056
	l13.716,20.913l20.413-11.673L348.13,319.529z"/>
<g>
</g>
<g>
</g>
<g>
</g>
<g>
</g>
<g>
</g>
<g>
</g>
<g>
</g>
<g>
</g>
<g>
</g>
<g>
</g>
<g>
</g>
<g>
</g>
<g>
</g>
<g>
</g>
<g>
</g>
</svg>
