<?xml version="1.0" encoding="iso-8859-1"?>
<!-- Generator: Adobe Illustrator 19.0.0, SVG Export Plug-In . SVG Version: 6.00 Build 0)  -->
<svg version="1.1" id="Capa_1" xmlns="http://www.w3.org/2000/svg" xmlns:xlink="http://www.w3.org/1999/xlink" x="0px" y="0px"
	 viewBox="0 0 512 512" style="enable-background:new 0 0 512 512;" xml:space="preserve">
<path style="fill:#FFD15C;" d="M512,256c0,71.481-29.299,136.129-76.549,182.575C389.256,483.986,325.904,512,256,512
	c-60.677,0-116.412-21.107-160.277-56.372c-6.677-5.371-13.072-11.065-19.174-17.063C29.299,392.119,0,327.492,0,256
	C0,114.615,114.615,0,256,0S512,114.615,512,256z"/>
<circle style="fill:#FFDC8D;" cx="256" cy="213.295" r="213.295"/>
<path style="fill:#EF4152;" d="M435.451,210.244v228.331C389.256,483.986,325.904,512,256,512
	c-60.677,0-116.412-21.107-160.277-56.372c-6.677-5.371-13.072-11.065-19.174-17.063V210.244H435.451z"/>
<path style="fill:#FF525D;" d="M435.451,262.625v175.95C389.256,483.986,325.904,512,256,512
	c-60.677,0-116.412-21.107-160.277-56.372V293.292c0-16.938,13.73-30.668,30.668-30.668H435.451z"/>
<path style="fill:#EF4152;" d="M435.448,203.975H76.546l36.812-169.932c2.476-11.463,12.622-19.634,24.346-19.634H374.29
	c11.724,0,21.859,8.171,24.336,19.634L435.448,203.975z"/>
<path style="fill:#FF525D;" d="M435.448,203.975H94.821l36.822-169.932c2.476-11.463,12.612-19.634,24.336-19.634H374.29
	c11.724,0,21.859,8.171,24.336,19.634L435.448,203.975z"/>
<path style="fill:#EF4152;" d="M458.174,196.211v32.768c0,8.694-7.053,15.747-15.757,15.747H69.566
	c-8.704,0-15.747-7.053-15.747-15.747v-32.768c0-8.694,7.043-15.747,15.747-15.747h372.851
	C451.121,180.464,458.174,187.517,458.174,196.211z"/>
<path style="fill:#FF525D;" d="M458.174,196.211v32.768c0,8.694-7.053,15.747-15.757,15.747H94.268
	c-8.694,0-15.747-7.053-15.747-15.747v-32.768c0-8.694,7.053-15.747,15.747-15.747h348.15
	C451.121,180.464,458.174,187.517,458.174,196.211z"/>
<g>
	<path style="fill:#EF4152;" d="M326.038,130.313H196.182c-13.912,0-25.189-11.278-25.189-25.189V14.409h180.235v90.715
		C351.228,119.036,339.95,130.313,326.038,130.313z"/>
	<path style="fill:#EF4152;" d="M249.688,405.224v44.099c-20.666,0-34.07-0.112-42.711-2.598c-4.982-1.433-9.2-4.769-11.833-9.234
		l0,0c0-0.002,0-0.004-0.002-0.006c-1.649-4.563-4.26-15.054-0.267-22.934c2.644-5.222,9.411-5.375,11.453-9.328h43.361V405.224z"/>
	<path style="fill:#EF4152;" d="M213.416,351.709l22.001,44.001l-18.731-10.106c0,0-3.452,6.243-10.36,19.621
		c-2.042,3.952-4.384,8.528-7.028,13.752c-3.992,7.881-5.805,13.948-4.157,18.51l-23.217-39.368
		c-2.303-3.909-2.464-8.723-0.42-12.775l9.605-19.065l-17.341-10.108L213.416,351.709z"/>
	<path style="fill:#EF4152;" d="M290.342,369.485l38.191-22.049c10.333,17.897,16.938,29.561,19.106,38.287
		c1.25,5.031,0.47,10.352-2.079,14.865l0,0c-0.002,0.001-0.003,0.002-0.004,0.004c-3.127,3.709-10.908,11.216-19.729,11.7
		c-5.845,0.322-9.36-5.463-13.804-5.255L290.342,369.485z"/>
	<path style="fill:#EF4152;" d="M262.134,427.655l27.105-41.054l0.612,21.274c0,0,7.134-0.132,22.172-0.838
		c4.444-0.208,9.579-0.467,15.424-0.789c8.821-0.484,14.982-1.947,18.109-5.656l-22.486,39.79
		c-2.233,3.949-6.323,6.495-10.853,6.751l-21.314,1.214l-0.084,20.072L262.134,427.655z"/>
	<path style="fill:#EF4152;" d="M238.049,352.974l-38.191-22.049c10.333-17.897,17.132-29.449,23.605-35.691
		c3.731-3.598,8.73-5.583,13.914-5.631l0,0c0.002,0.001,0.003,0.002,0.006,0.001c4.776,0.854,15.167,3.838,19.996,11.236
		c3.201,4.902-0.05,10.838,2.351,14.582L238.049,352.974z"/>
	<path style="fill:#EF4152;" d="M302.529,348.318l-49.106-2.947l18.117-11.168c0,0-3.681-6.112-11.812-18.783
		c-2.402-3.744-5.194-8.061-8.395-12.963c-4.828-7.398-9.176-12.002-13.953-12.855l45.702-0.422
		c4.537-0.041,8.787,2.228,11.273,6.024l11.709,17.851l17.425-9.964L302.529,348.318z"/>
</g>
<g>
</g>
<g>
</g>
<g>
</g>
<g>
</g>
<g>
</g>
<g>
</g>
<g>
</g>
<g>
</g>
<g>
</g>
<g>
</g>
<g>
</g>
<g>
</g>
<g>
</g>
<g>
</g>
<g>
</g>
</svg>
