<?xml version="1.0" encoding="iso-8859-1"?>
<!-- Generator: Adobe Illustrator 19.0.0, SVG Export Plug-In . SVG Version: 6.00 Build 0)  -->
<svg version="1.1" id="Capa_1" xmlns="http://www.w3.org/2000/svg" xmlns:xlink="http://www.w3.org/1999/xlink" x="0px" y="0px"
	 viewBox="0 0 512 512" style="enable-background:new 0 0 512 512;" xml:space="preserve">
<path style="fill:#FF525D;" d="M512,256c0,57.334-18.85,110.268-50.688,152.942C414.636,471.5,340.052,512,256,512
	S97.364,471.5,50.688,408.942C18.85,366.268,0,313.334,0,256s18.85-110.268,50.688-152.942
	C63.676,85.65,78.827,69.956,95.744,56.362C139.609,21.096,195.333,0,256,0s116.391,21.096,160.256,56.362
	c16.917,13.594,32.068,29.288,45.056,46.696C493.15,145.732,512,198.666,512,256z"/>
<circle style="fill:#FF6E7C;" cx="256" cy="213.295" r="213.295"/>
<path style="fill:#E8E8E8;" d="M461.312,56.362v352.58c-45.955,61.597-118.972,101.804-201.435,103.027
	C258.591,511.99,257.296,512,256,512c-84.052,0-158.636-40.5-205.312-103.058V56.362h67.396l11.36,139.483h253.122l11.36-139.483
	H461.312z"/>
<path style="fill:#4BC999;" d="M248.609,374.88v51.663c-24.21,0-39.913-0.131-50.036-3.043c-5.836-1.678-10.778-5.587-13.864-10.818
	l0,0c0-0.002,0-0.004-0.002-0.007c-1.932-5.346-4.99-17.636-0.313-26.868c3.097-6.119,11.025-6.297,13.416-10.928h50.799V374.88z"/>
<path style="fill:#1E9E67;" d="M206.117,312.188l25.775,51.546l-21.943-11.84c0,0-4.045,7.314-12.138,22.986
	c-2.392,4.63-5.137,9.991-8.234,16.11c-4.677,9.233-6.801,16.34-4.869,21.685l-27.198-46.12c-2.698-4.579-2.886-10.219-0.492-14.965
	l11.253-22.336l-20.315-11.842L206.117,312.188z"/>
<path style="fill:#4BC999;" d="M296.236,333.012l44.74-25.831c12.105,20.967,19.843,34.631,22.383,44.854
	c1.465,5.893,0.551,12.127-2.437,17.414l0,0c-0.002,0.001-0.004,0.002-0.005,0.005c-3.663,4.346-12.778,13.14-23.112,13.706
	c-6.847,0.377-10.966-6.4-16.172-6.155L296.236,333.012z"/>
<path style="fill:#1E9E67;" d="M263.189,401.158l31.753-48.095l0.718,24.923c0,0,8.357-0.155,25.975-0.982
	c5.206-0.243,11.221-0.548,18.068-0.925c10.334-0.566,17.551-2.28,21.215-6.626l-26.342,46.614
	c-2.616,4.626-7.407,7.609-12.714,7.909l-24.969,1.423l-0.098,23.514L263.189,401.158z"/>
<path style="fill:#4BC999;" d="M234.974,313.669l-44.74-25.831c12.105-20.967,20.07-34.5,27.653-41.812
	c4.372-4.215,10.227-6.541,16.299-6.597l0,0c0.002,0.001,0.004,0.002,0.007,0.001c5.595,1,17.768,4.496,23.426,13.163
	c3.75,5.742-0.06,12.697,2.754,17.083L234.974,313.669z"/>
<path style="fill:#1E9E67;" d="M310.513,308.215l-57.528-3.452l21.225-13.083c0,0-4.312-7.161-13.838-22.003
	c-2.814-4.386-6.084-9.444-9.835-15.186c-5.657-8.666-10.75-14.06-16.345-15.059l53.54-0.494c5.314-0.047,10.293,2.61,13.206,7.056
	l13.716,20.913l20.413-11.673L310.513,308.215z"/>
<g>
	<path style="fill:#D6D6D6;" d="M259.877,511.969C258.591,511.99,257.296,512,256,512c-84.052,0-158.636-40.5-205.312-103.058
		V56.362h45.056c0,42.308-10.948,119.109,29.8,186.504c16.63,27.504-26.645,57.981-18.808,94.03s42.318,105.012,90.906,119.118
		C234.621,466.756,263.429,487.476,259.877,511.969z"/>
	<path style="fill:#D6D6D6;" d="M461.312,255.401c0,26.644-58.361,39.182-58.361,65.825c0,26.644,58.361-3.135,58.361,15.672"/>
</g>
<g>
</g>
<g>
</g>
<g>
</g>
<g>
</g>
<g>
</g>
<g>
</g>
<g>
</g>
<g>
</g>
<g>
</g>
<g>
</g>
<g>
</g>
<g>
</g>
<g>
</g>
<g>
</g>
<g>
</g>
</svg>
