<?xml version="1.0" encoding="iso-8859-1"?>
<!-- Generator: Adobe Illustrator 19.0.0, SVG Export Plug-In . SVG Version: 6.00 Build 0)  -->
<svg version="1.1" id="Capa_1" xmlns="http://www.w3.org/2000/svg" xmlns:xlink="http://www.w3.org/1999/xlink" x="0px" y="0px"
	 viewBox="0 0 512 512" style="enable-background:new 0 0 512 512;" xml:space="preserve">
<path style="fill:#34ABE0;" d="M512,256c0,59.528-20.323,114.312-54.408,157.79c-12.946,16.52-27.888,31.42-44.46,44.314
	c-5.653,4.409-11.504,8.579-17.523,12.507c-13.302,8.673-27.46,16.133-42.318,22.246c-23.03,9.477-47.752,15.684-73.592,18.056
	C271.893,511.634,263.993,512,256,512c-91.951,0-172.586-48.483-217.725-121.281C14.012,351.587,0,305.424,0,256
	C0,114.615,114.615,0,256,0c17.659,0,34.9,1.787,51.555,5.193c15.83,3.239,31.117,7.931,45.735,13.949
	c32.465,13.343,61.586,33.176,85.744,57.877C484.174,123.173,512,186.347,512,256z"/>
<circle style="fill:#72BBE8;" cx="256" cy="213.295" r="213.295"/>
<path style="fill:#F4F4F4;" d="M457.592,413.79c-17.366,22.162-38.327,41.399-61.983,56.822
	c-33.928,22.11-73.404,36.404-115.911,40.302l2.905-52.809l4.66-84.637l4.148-75.233l4.66-84.626l4.148-75.233l4.66-84.626
	l2.675-48.556L307.837,0h126.955l2.957,53.75l1.285,23.27l3.385,61.356l4.138,75.233l4.671,84.626l4.138,75.233L457.592,413.79z"/>
<path style="fill:#D6D6D6;" d="M353.29,0v492.857c-23.03,9.477-47.752,15.684-73.592,18.056l27.857-505.72L307.837,0H353.29z"/>
<g>
	<polygon style="fill:#FF525D;" points="442.42,138.376 300.22,138.376 304.88,53.75 437.75,53.75 	"/>
	<polygon style="fill:#FF525D;" points="451.229,298.235 291.412,298.235 296.072,213.608 446.558,213.608 	"/>
	<path style="fill:#FF525D;" d="M457.592,413.79c-12.946,16.52-27.888,31.42-44.46,44.314H282.603l4.66-84.637h168.103
		L457.592,413.79z"/>
</g>
<g>
	<polygon style="fill:#EF4152;" points="353.29,53.75 353.29,138.376 300.22,138.376 304.88,53.75 	"/>
	<polygon style="fill:#EF4152;" points="296.072,213.608 353.29,213.608 353.29,298.235 291.412,298.235 	"/>
	<polygon style="fill:#EF4152;" points="287.263,373.467 353.29,373.467 353.29,458.104 282.603,458.104 	"/>
</g>
<rect x="97.04" y="169.2" style="fill:#D6D6D6;" width="239.794" height="47.018"/>
<path style="fill:#E8E8E8;" d="M395.609,203.68v266.932C355.453,496.786,307.513,512,256,512
	c-91.951,0-172.586-48.483-217.725-121.281V203.68H395.609z"/>
<g>
	<rect x="72.756" y="227.192" style="fill:#5C5E70;" width="36.047" height="73.665"/>
	<rect x="198.917" y="227.192" style="fill:#5C5E70;" width="36.047" height="73.665"/>
	<rect x="135.837" y="227.192" style="fill:#5C5E70;" width="36.047" height="73.665"/>
	<rect x="261.998" y="227.192" style="fill:#5C5E70;" width="36.047" height="73.665"/>
	<rect x="325.078" y="227.192" style="fill:#5C5E70;" width="36.047" height="73.665"/>
</g>
<path style="fill:#FFFFFF;" d="M211.868,430.308v35.467c-16.62,0-27.4-0.09-34.35-2.089c-4.006-1.153-7.399-3.835-9.517-7.426l0,0
	c0-0.002,0-0.003-0.002-0.005c-1.326-3.67-3.426-12.107-0.215-18.446c2.126-4.201,7.569-4.323,9.211-7.501L211.868,430.308
	L211.868,430.308z"/>
<path style="fill:#5C5E70;" d="M182.696,387.269l17.694,35.387l-15.064-8.128c0,0-2.777,5.022-8.332,15.78
	c-1.642,3.179-3.527,6.86-5.653,11.059c-3.211,6.338-4.669,11.218-3.343,14.887l-18.671-31.661
	c-1.853-3.143-1.981-7.015-0.338-10.273l7.725-15.334l-13.946-8.129L182.696,387.269z"/>
<path style="fill:#FFFFFF;" d="M244.564,401.566l30.715-17.733c8.31,14.393,13.622,23.775,15.366,30.792
	c1.005,4.046,0.378,8.326-1.673,11.956l0,0c-0.001,0.001-0.003,0.002-0.003,0.004c-2.515,2.983-8.772,9.021-15.867,9.409
	c-4.701,0.258-7.528-4.394-11.102-4.226L244.564,401.566z"/>
<path style="fill:#5C5E70;" d="M221.877,448.348l21.799-33.017l0.493,17.11c0,0,5.738-0.106,17.832-0.674
	c3.574-0.167,7.703-0.376,12.404-0.634c7.094-0.389,12.049-1.565,14.564-4.548l-18.084,32.001c-1.796,3.175-5.084,5.223-8.728,5.429
	l-17.142,0.977l-0.067,16.143L221.877,448.348z"/>
<path style="fill:#FFFFFF;" d="M202.508,388.286l-30.715-17.733c8.31-14.393,13.778-23.685,18.984-28.703
	c3.001-2.893,7.021-4.49,11.19-4.529l0,0c0.001,0.001,0.003,0.002,0.005,0.001c3.841,0.687,12.198,3.087,16.082,9.036
	c2.575,3.941-0.041,8.717,1.891,11.728L202.508,388.286z"/>
<path style="fill:#5C5E70;" d="M254.365,384.542l-39.493-2.37l14.571-8.982c0,0-2.96-4.915-9.499-15.106
	c-1.932-3.011-4.178-6.484-6.752-10.425c-3.884-5.95-7.38-9.653-11.221-10.338l36.755-0.34c3.649-0.032,7.067,1.792,9.067,4.844
	l9.417,14.357l14.014-8.013L254.365,384.542z"/>
<g>
</g>
<g>
</g>
<g>
</g>
<g>
</g>
<g>
</g>
<g>
</g>
<g>
</g>
<g>
</g>
<g>
</g>
<g>
</g>
<g>
</g>
<g>
</g>
<g>
</g>
<g>
</g>
<g>
</g>
</svg>
