<?xml version="1.0" encoding="iso-8859-1"?>
<!-- Generator: Adobe Illustrator 19.0.0, SVG Export Plug-In . SVG Version: 6.00 Build 0)  -->
<svg version="1.1" id="Capa_1" xmlns="http://www.w3.org/2000/svg" xmlns:xlink="http://www.w3.org/1999/xlink" x="0px" y="0px"
	 viewBox="0 0 512 512" style="enable-background:new 0 0 512 512;" xml:space="preserve">
<circle style="fill:#34ABE0;" cx="256" cy="256" r="255.999"/>
<circle style="fill:#72BBE8;" cx="256" cy="213.296" r="213.295"/>
<path style="fill:#FFFFFF;" d="M244.847,205.158v77.965c-36.536,0-60.233-0.197-75.51-4.591
	c-8.807-2.533-16.265-8.431-20.921-16.324l0,0c0-0.003,0-0.007-0.003-0.01c-2.915-8.067-7.531-26.615-0.473-40.547
	c4.675-9.234,16.638-9.503,20.248-16.491h76.66V205.158z"/>
<path style="fill:#5C5E70;" d="M180.72,110.548l38.896,77.789l-33.115-17.868c0,0-6.104,11.038-18.316,34.688
	c-3.609,6.987-7.751,15.079-12.426,24.312c-7.057,13.933-10.264,24.66-7.349,32.726l-41.045-69.601
	c-4.072-6.91-4.356-15.422-0.743-22.584l16.982-33.707l-30.658-17.872L180.72,110.548z"/>
<path style="fill:#FFFFFF;" d="M316.721,141.975l67.519-38.982c18.268,31.642,29.946,52.263,33.778,67.69
	c2.21,8.894,0.832,18.301-3.677,26.281l0,0c-0.003,0.002-0.006,0.003-0.007,0.008c-5.529,6.558-19.284,19.829-34.879,20.684
	c-10.334,0.568-16.549-9.658-24.405-9.29L316.721,141.975z"/>
<path style="fill:#5C5E70;" d="M266.85,244.815l47.92-72.581l1.084,37.612c0,0,12.612-0.233,39.199-1.482
	c7.856-0.368,16.934-0.827,27.268-1.395c15.595-0.855,26.487-3.441,32.016-9.999l-39.753,70.346
	c-3.949,6.982-11.178,11.483-19.187,11.936l-37.682,2.147l-0.148,35.487L266.85,244.815z"/>
<path style="fill:#FFFFFF;" d="M224.27,112.783l-67.519-38.982c18.268-31.642,30.288-52.065,41.732-63.098
	c6.597-6.361,15.434-9.871,24.598-9.956l0,0c0.003,0.002,0.006,0.003,0.01,0.002c8.444,1.509,26.814,6.786,35.352,19.863
	c5.659,8.665-0.089,19.16,4.158,25.78L224.27,112.783z"/>
<path style="fill:#5C5E70;" d="M338.267,104.552l-86.816-5.21l32.031-19.744c0,0-6.508-10.805-20.882-33.207
	c-4.246-6.619-9.183-14.252-14.842-22.918c-8.538-13.078-16.223-21.219-24.667-22.726l80.798-0.746
	c8.021-0.071,15.533,3.939,19.93,10.649l20.7,31.56l30.807-17.615L338.267,104.552z"/>
<g>
	<path style="fill:#E5B691;" d="M66.686,211.696l13.725,4.227c15.666,4.825,21.206,24.158,10.473,36.548l-19.712,22.754"/>
	<path style="fill:#E5B691;" d="M445.315,211.696l-13.725,4.227c-15.666,4.825-21.206,24.158-10.473,36.548l19.712,22.754"/>
	<path style="fill:#E5B691;" d="M487.103,213.463l-1.473,123.225c-0.146,12.382-4.754,24.304-12.967,33.572l-82.557,93.09
		c-3.626,4.086-5.851,9.195-6.405,14.576c-27.627,15.935-58.504,26.854-91.397,31.514l-16.269-89.13
		c-3.647-19.958,1.766-40.73,15.423-55.745c0.554-0.606,1.118-1.212,1.693-1.797l78.033-79.935
		c3.532-3.626,8.213-5.423,12.884-5.423c4.796,0,9.592,1.902,13.155,5.705c6.395,6.844,6.478,17.46,0.188,24.398L350.42,359.32
		c-2.905,3.208-4.326,7.22-4.326,11.201c0,4.942,2.173,9.843,6.384,13.145c6.854,5.392,16.697,4.598,22.601-1.829l54.366-59.141
		c4.838-5.266,7.743-12.006,8.244-19.122l6.489-91.878c0.794-11.264,10.156-19.978,21.441-19.978h0.157
		C477.679,191.812,487.25,201.561,487.103,213.463z"/>
	<path style="fill:#E5B691;" d="M235.963,420.31l-15.569,85.274l-0.7,3.856c-32.893-4.66-63.77-15.59-91.397-31.525
		c-0.554-5.381-2.779-10.48-6.395-14.566l-82.557-93.09c-8.223-9.268-12.831-21.19-12.978-33.573l-1.473-123.225
		c-0.136-11.901,9.425-21.65,21.326-21.744h0.157c0.69,0,1.369,0.031,2.038,0.104c10.355,0.972,18.662,9.3,19.414,19.874
		l6.489,91.878c0.502,7.116,3.406,13.855,8.234,19.122l54.366,59.141c5.413,5.893,14.137,7.053,20.835,3.051h0.01
		c0.606-0.376,1.202-0.773,1.766-1.223c4.211-3.302,6.384-8.202,6.384-13.134c0-3.992-1.421-8.004-4.336-11.212l-46.979-51.806
		c-6.301-6.938-6.217-17.554,0.188-24.398c3.553-3.803,8.349-5.705,13.155-5.705c0.899,0,1.808,0.063,2.696,0.199
		c3.73,0.564,7.325,2.299,10.188,5.224l78.033,79.935c0.575,0.585,1.139,1.191,1.693,1.797
		C234.196,379.58,239.61,400.353,235.963,420.31z"/>
</g>
<g>
	<path style="fill:#F7CEA6;" d="M235.963,420.31l-12.716,89.6c-1.191-0.146-2.372-0.303-3.553-0.47
		c-29.32-4.148-57.03-13.291-82.265-26.509c-1.034-10.324-2.393-19.822-4.033-21.671l-82.557-93.09
		c-8.223-9.268-12.831-21.19-12.978-33.573l-1.473-123.225c-0.094-8.568,4.827-16.018,12.027-19.55
		c10.355,0.972,18.662,9.3,19.414,19.874l6.489,91.878c0.502,7.116,3.406,13.855,8.234,19.122l54.366,59.141
		c5.413,5.893,14.137,7.053,20.835,3.051h0.01c4.545,0.805,9.383-0.261,13.26-3.312c4.211-3.302,6.384-8.202,6.384-13.134
		c0-3.992-1.421-8.004-4.336-11.212l-46.979-51.806c-6.301-6.938-6.217-17.554,0.188-24.398c1.306-1.4,2.779-2.529,4.357-3.417
		c3.73,0.564,7.325,2.299,10.188,5.224l78.033,79.935c0.575,0.585,1.139,1.191,1.693,1.797
		C234.196,379.58,239.61,400.353,235.963,420.31z"/>
	<path style="fill:#F7CEA6;" d="M276.044,420.31l12.716,89.6c1.191-0.146,2.372-0.303,3.553-0.47
		c29.32-4.148,57.03-13.291,82.265-26.509c1.034-10.324,2.393-19.822,4.033-21.671l82.557-93.09
		c8.223-9.268,12.831-21.19,12.978-33.573l1.473-123.225c0.094-8.568-4.827-16.018-12.027-19.55
		c-10.355,0.972-18.662,9.3-19.414,19.874l-6.489,91.878c-0.502,7.116-3.406,13.855-8.234,19.122l-54.366,59.141
		c-5.413,5.893-14.137,7.053-20.835,3.051h-0.01c-4.545,0.805-9.383-0.261-13.26-3.312c-4.211-3.302-6.384-8.202-6.384-13.134
		c0-3.992,1.421-8.004,4.336-11.212l46.978-51.806c6.301-6.938,6.217-17.554-0.188-24.398c-1.306-1.4-2.779-2.529-4.357-3.417
		c-3.73,0.564-7.325,2.299-10.188,5.224l-78.033,79.935c-0.575,0.585-1.139,1.191-1.693,1.797
		C277.811,379.58,272.397,400.353,276.044,420.31z"/>
</g>
<g>
</g>
<g>
</g>
<g>
</g>
<g>
</g>
<g>
</g>
<g>
</g>
<g>
</g>
<g>
</g>
<g>
</g>
<g>
</g>
<g>
</g>
<g>
</g>
<g>
</g>
<g>
</g>
<g>
</g>
</svg>
