<?xml version="1.0" encoding="iso-8859-1"?>
<!-- Generator: Adobe Illustrator 19.0.0, SVG Export Plug-In . SVG Version: 6.00 Build 0)  -->
<svg version="1.1" id="Capa_1" xmlns="http://www.w3.org/2000/svg" xmlns:xlink="http://www.w3.org/1999/xlink" x="0px" y="0px"
	 viewBox="0 0 512 512" style="enable-background:new 0 0 512 512;" xml:space="preserve">
<path style="fill:#41B787;" d="M512,256c0,54.366-16.948,104.772-45.85,146.233c-11.745,16.844-25.464,32.214-40.824,45.767
	c-27.105,23.918-59.298,42.193-94.762,52.966c-7.973,2.424-16.102,4.472-24.388,6.113C289.949,510.307,273.178,512,256,512
	c-10.282,0-20.428-0.606-30.396-1.787c-8.61-1.024-17.074-2.466-25.391-4.315c-3.636-0.805-7.252-1.693-10.825-2.654
	c-7.993-2.142-15.83-4.671-23.489-7.555c-10.24-3.845-20.167-8.338-29.738-13.417c-2.226-1.181-4.42-2.382-6.604-3.636
	c-3.929-2.226-7.784-4.556-11.567-6.99c-8.965-5.747-17.544-12.037-25.694-18.829c-2.1-1.735-4.159-3.521-6.196-5.329
	C33.28,400.593,0,332.184,0,256C0,114.615,114.615,0,256,0S512,114.615,512,256z"/>
<circle style="fill:#4BC999;" cx="256" cy="213.295" r="213.295"/>
<g>
	<polygon style="fill:#FFD15C;" points="150.88,113.996 417.417,113.996 473.53,235.574 342.6,247.265 323.895,167.772 	"/>
	<path style="fill:#FFD15C;" d="M478.208,270.649L466.15,402.233c-11.745,16.844-25.464,32.214-40.824,45.767l-19.602-74.48
		l-75.159,127.446c-7.973,2.424-16.102,4.472-24.388,6.113l38.766-236.429L478.208,270.649L478.208,270.649z"/>
	<circle style="fill:#FFD15C;" cx="361.305" cy="48.536" r="47.929"/>
	<polygon style="fill:#FFD15C;" points="136.186,153.637 165.912,151.434 165.912,166.848 183.528,166.848 174.721,208.685 
		121.874,218.594 132.883,195.473 116.368,195.473 	"/>
	<rect x="63.522" y="249.156" style="fill:#FFD15C;" width="189.367" height="14.313"/>
	<polygon style="fill:#FFD15C;" points="154.906,396.957 154.906,367.501 121.083,367.501 123.329,396.957 	"/>
	<polygon style="fill:#FFD15C;" points="154.906,324.827 117.844,324.827 120.09,354.283 154.906,354.283 	"/>
	<polygon style="fill:#FFD15C;" points="203.985,311.62 206.461,279.144 165.898,279.144 165.898,311.62 	"/>
	<polygon style="fill:#FFD15C;" points="154.906,410.175 124.322,410.175 126.568,439.599 154.906,439.599 	"/>
	<polygon style="fill:#FFD15C;" points="103.309,279.144 73.425,279.144 75.86,311.62 105.785,311.62 	"/>
	<polygon style="fill:#FFD15C;" points="154.906,311.62 154.906,279.144 114.343,279.144 116.82,311.62 	"/>
	<polygon style="fill:#FFD15C;" points="106.778,324.827 76.852,324.827 79.067,354.283 109.025,354.283 	"/>
	<polygon style="fill:#FFD15C;" points="196.483,410.175 165.898,410.175 165.898,439.599 194.236,439.599 	"/>
	<polygon style="fill:#FFD15C;" points="202.992,324.827 165.898,324.827 165.898,354.283 200.746,354.283 	"/>
	<polygon style="fill:#FFD15C;" points="165.898,396.957 197.475,396.957 199.722,367.501 165.898,367.501 	"/>
	<polygon style="fill:#FFD15C;" points="193.212,452.817 165.898,452.817 165.898,482.273 190.966,482.273 	"/>
	<polygon style="fill:#FFD15C;" points="202.031,482.273 227.704,482.273 229.909,452.817 204.278,452.817 	"/>
	<polygon style="fill:#FFD15C;" points="205.27,439.599 230.902,439.599 233.117,410.175 207.517,410.175 	"/>
	<polygon style="fill:#FFD15C;" points="208.541,396.957 234.141,396.957 236.356,367.501 210.787,367.501 	"/>
	<polygon style="fill:#FFD15C;" points="211.78,354.283 237.338,354.283 239.553,324.827 214.026,324.827 	"/>
	<polygon style="fill:#FFD15C;" points="217.495,279.144 215.05,311.62 240.546,311.62 242.991,279.144 	"/>
	<path style="fill:#FFD15C;" d="M165.898,495.491v0.199c7.659,2.884,15.496,5.413,23.489,7.555l0.596-7.753H165.898z"/>
	<polygon style="fill:#FFD15C;" points="113.288,410.175 83.299,410.175 85.504,439.599 115.534,439.599 	"/>
	<path style="fill:#FFD15C;" d="M92.296,452.817c8.15,6.792,16.729,13.082,25.694,18.829l-1.432-18.829H92.296z"/>
	<path style="fill:#FFD15C;" d="M154.906,452.817h-27.314l1.964,25.819c2.184,1.254,4.378,2.456,6.604,3.636h18.745V452.817z"/>
	<polygon style="fill:#FFD15C;" points="110.049,367.501 80.06,367.501 82.275,396.957 112.295,396.957 	"/>
	<path style="fill:#FFD15C;" d="M200.213,505.898c8.317,1.849,16.781,3.291,25.391,4.315l1.108-14.723h-25.704L200.213,505.898z"/>
</g>
<g>
</g>
<g>
</g>
<g>
</g>
<g>
</g>
<g>
</g>
<g>
</g>
<g>
</g>
<g>
</g>
<g>
</g>
<g>
</g>
<g>
</g>
<g>
</g>
<g>
</g>
<g>
</g>
<g>
</g>
</svg>
