<?xml version="1.0" encoding="iso-8859-1"?>
<!-- Generator: Adobe Illustrator 19.0.0, SVG Export Plug-In . SVG Version: 6.00 Build 0)  -->
<svg version="1.1" id="Capa_1" xmlns="http://www.w3.org/2000/svg" xmlns:xlink="http://www.w3.org/1999/xlink" x="0px" y="0px"
	 viewBox="0 0 512 512" style="enable-background:new 0 0 512 512;" xml:space="preserve">
<path style="fill:#FF525D;" d="M512,256c0,88.158-44.565,165.909-112.389,211.947c-6.123,4.169-12.434,8.067-18.934,11.692
	c-5.214,2.915-10.543,5.653-15.977,8.202c-5.444,2.56-10.992,4.932-16.635,7.105c-15.297,5.893-31.295,10.365-47.846,13.239
	C285.853,510.694,271.078,512,256,512s-29.853-1.306-44.22-3.814c-52.172-9.07-98.92-33.949-135.137-69.527
	c-6.687-6.562-13.009-13.479-18.934-20.741c-5.695-6.959-11.034-14.221-15.976-21.765c-6.165-9.404-11.724-19.247-16.635-29.466
	C9.007,333.187,0,295.643,0,256s9.007-77.187,25.098-110.686c4.911-10.219,10.47-20.062,16.635-29.466
	c4.942-7.544,10.282-14.806,15.976-21.765c0.115-0.146,0.23-0.293,0.355-0.439c4.723-5.757,9.707-11.316,14.911-16.635
	c1.212-1.233,2.435-2.466,3.668-3.668c4.336-4.263,8.819-8.37,13.448-12.309c7.993-6.802,16.405-13.134,25.203-18.934
	C155.669,15.485,204.027,0,256,0s100.331,15.485,140.706,42.099c0.972,0.648,1.944,1.296,2.905,1.954
	C467.435,90.091,512,167.842,512,256z"/>
<circle style="fill:#FF6E7C;" cx="256" cy="213.295" r="213.295"/>
<g>
	<path style="fill:#D6D6D6;" d="M399.611,42.099v425.848c-6.123,4.169-12.434,8.067-18.934,11.692
		c-5.214,2.915-10.543,5.653-15.977,8.202c-5.444,2.56-10.992,4.932-16.635,7.105c-15.297,5.893-31.295,10.365-47.846,13.239
		C285.853,510.694,271.078,512,256,512s-29.853-1.306-44.22-3.814c-52.172-9.07-98.92-33.949-135.137-69.527V42.099H399.611z"/>
	<path style="fill:#D6D6D6;" d="M364.701,77.009v410.833c-5.444,2.56-10.992,4.932-16.635,7.105
		c-15.297,5.893-31.295,10.365-47.846,13.239h-88.44c-52.172-9.07-98.92-33.949-135.137-69.527
		c-6.687-6.562-13.009-13.479-18.934-20.741c-5.695-6.959-11.034-14.221-15.976-21.765V77.009H364.701z"/>
	<path style="fill:#D6D6D6;" d="M380.677,61.032v418.607c-5.214,2.915-10.543,5.653-15.977,8.202
		c-5.444,2.56-10.992,4.932-16.635,7.105c-15.297,5.893-31.295,10.365-47.846,13.239C285.853,510.694,271.078,512,256,512
		s-29.853-1.306-44.22-3.814c-52.172-9.07-98.92-33.949-135.137-69.527c-6.687-6.562-13.009-13.479-18.934-20.741V61.032H380.677z"
		/>
</g>
<path style="fill:#E8E8E8;" d="M348.066,93.644v401.303c-15.297,5.893-31.295,10.365-47.846,13.239
	C285.853,510.694,271.078,512,256,512s-29.853-1.306-44.22-3.814c-52.172-9.07-98.92-33.949-135.137-69.527
	c-6.687-6.562-13.009-13.479-18.934-20.741c-5.695-6.959-11.034-14.221-15.976-21.765c-6.165-9.404-11.724-19.247-16.635-29.466
	V160.653l67.009-67.009H348.066z"/>
<polygon style="fill:#FCFCFC;" points="25.098,160.653 92.108,93.644 92.108,160.653 "/>
<path style="fill:#4BC999;" d="M336.941,353.283v81.416c-38.153,0-62.9-0.207-78.853-4.795c-9.197-2.646-16.986-8.804-21.848-17.048
	l0,0c0-0.003,0-0.007-0.003-0.01c-3.045-8.424-7.864-27.793-0.494-42.342c4.882-9.642,17.375-9.923,21.144-17.22h80.055V353.283z"/>
<path style="fill:#1E9E67;" d="M269.975,254.485l40.618,81.233l-34.581-18.659c0,0-6.375,11.527-19.127,36.223
	c-3.769,7.297-8.095,15.747-12.976,25.389c-7.37,14.549-10.719,25.75-7.674,34.174l-42.862-72.682
	c-4.252-7.216-4.548-16.105-0.775-23.584l17.733-35.199l-32.016-18.663L269.975,254.485z"/>
<path style="fill:#4BC999;" d="M509.064,294.839c-3.135,20.647-8.746,40.469-16.509,59.183c-1.39,3.354-2.853,6.666-4.389,9.947
	c-3.406,1.306-6.98,2.163-10.658,2.361c-10.794,0.596-17.283-10.083-25.485-9.697l-40.03-69.329l70.51-40.709
	C493.913,266.355,502.868,282.008,509.064,294.839z"/>
<path style="fill:#1E9E67;" d="M492.554,354.022c-11.922,28.745-28.933,54.857-49.915,77.187l-29.602,1.693l-0.105,25.36
	c-1.776,1.39-3.584,2.748-5.402,4.086L359.915,394.7l50.04-75.797l1.139,39.278c0,0,13.166-0.24,40.929-1.546
	c8.202-0.387,17.69-0.867,28.473-1.463C484.874,354.931,488.897,354.565,492.554,354.022z"/>
<path style="fill:#4BC999;" d="M315.453,256.818l-70.509-40.708c19.077-33.042,31.629-54.369,43.58-65.891
	c6.89-6.642,16.118-10.308,25.687-10.397l0,0c0.003,0.002,0.006,0.004,0.011,0.002c8.818,1.576,28.001,7.085,36.917,20.743
	c5.91,9.049-0.093,20.009,4.342,26.922L315.453,256.818z"/>
<path style="fill:#1E9E67;" d="M434.498,248.223l-90.66-5.44l33.449-20.618c0,0-6.795-11.284-21.807-34.677
	c-4.435-6.912-9.589-14.884-15.499-23.931c-8.915-13.657-16.942-22.157-25.759-23.733l84.376-0.778
	c8.376-0.074,16.221,4.113,20.812,11.121l21.617,32.957l32.17-18.395L434.498,248.223z"/>
<g>
</g>
<g>
</g>
<g>
</g>
<g>
</g>
<g>
</g>
<g>
</g>
<g>
</g>
<g>
</g>
<g>
</g>
<g>
</g>
<g>
</g>
<g>
</g>
<g>
</g>
<g>
</g>
<g>
</g>
</svg>
