<?xml version="1.0" encoding="iso-8859-1"?>
<!-- Generator: Adobe Illustrator 19.0.0, SVG Export Plug-In . SVG Version: 6.00 Build 0)  -->
<svg version="1.1" id="Capa_1" xmlns="http://www.w3.org/2000/svg" xmlns:xlink="http://www.w3.org/1999/xlink" x="0px" y="0px"
	 viewBox="0 0 512 512" style="enable-background:new 0 0 512 512;" xml:space="preserve">
<path style="fill:#34ABE0;" d="M429.032,67.334c-23.157-21.239-49.158-37.412-76.651-48.564
	C281.106-10.192,199.798-5.485,132.227,31.829c-23.653,13.057-45.619,30.117-64.887,51.125
	c-26.403,28.787-44.974,61.995-55.84,96.983c-28.436,91.649-3.943,195.549,71.461,264.71c28.215,25.879,60.67,44.251,94.88,55.199
	c92.157,29.464,197.14,5.169,266.826-70.808c33.362-36.373,54.226-79.787,62.809-124.966
	C523.501,219.856,496.848,129.536,429.032,67.334z"/>
<g>
	<path style="fill:#FFD15C;" d="M132.227,31.829c-23.653,13.057-45.619,30.117-64.887,51.125
		c-26.403,28.787-44.974,61.995-55.84,96.983c43.503,9.643,113.57,27.574,135.702,78.787
		C175.68,324.626,35.43,367.448,82.96,444.648c28.215,25.879,60.67,44.251,94.88,55.199c24.647-2.199,46.51-14.861,58.925-32.608
		c0,0,64.324-65.027,31.288-123.41s-94.373-65.497-93.935-111.899c0.437-46.401,64.745-55.282,31.604-116.1
		C186.485,80.519,155.133,50.663,132.227,31.829z"/>
	<path style="fill:#FFD15C;" d="M507.474,304.068c0,0-4.505-0.631-11.595-1.918c-25.096-4.579-82.541-17.436-87.33-40.07
		c-6.138-29.02,46.839-45.96,33.821-92.998c-1.027-3.725-2.376-7.078-3.985-10.135c-7.264-13.81-19.948-21.285-33.524-26.73
		c-0.013-0.013-0.037-0.025-0.049-0.025c-18.587-7.437-38.832-11.112-49.166-22.126c-0.013-0.013-0.025-0.025-0.049-0.049
		c-1.535-1.622-2.834-3.403-3.886-5.371c-8.564-16.087-4.319-55.774,0.669-85.87c27.497,11.15,53.497,27.324,76.651,48.56
		C496.845,129.532,523.5,219.857,507.474,304.068z"/>
</g>
<path id="SVGCleanerId_0" style="fill:#279FC9;" d="M507.474,304.072c-8.583,45.179-29.447,88.592-62.809,124.966
	c25.408-27.702,41.299-60.766,47.836-95.174c12.206-64.139-8.093-132.927-59.741-180.299
	c-17.636-16.176-37.438-28.493-58.378-36.987c-54.283-22.057-116.207-18.472-167.669,9.946
	c-18.014,9.944-34.743,22.936-49.419,38.937c-20.109,21.924-34.252,47.215-42.528,73.862c-21.657,69.8-3.003,148.93,54.425,201.603
	c21.488,19.709,46.206,33.701,72.26,42.039c70.187,22.44,150.141,3.936,203.214-53.926
	c-69.685,75.976-174.668,100.271-266.826,70.808c-34.209-10.948-66.665-29.32-94.88-55.199
	C7.555,375.486-16.937,271.586,11.5,179.937c10.866-34.988,29.436-68.196,55.84-96.983c19.269-21.008,41.235-38.069,64.887-51.125
	C199.798-5.485,281.106-10.192,352.381,18.77c27.493,11.153,53.494,27.326,76.651,48.564
	C496.848,129.536,523.501,219.856,507.474,304.072z"/>
<g>
	<path id="SVGCleanerId_0_1_" style="fill:#279FC9;" d="M507.474,304.072c-8.583,45.179-29.447,88.592-62.809,124.966
		c25.408-27.702,41.299-60.766,47.836-95.174c12.206-64.139-8.093-132.927-59.741-180.299
		c-17.636-16.176-37.438-28.493-58.378-36.987c-54.283-22.057-116.207-18.472-167.669,9.946
		c-18.014,9.944-34.743,22.936-49.419,38.937c-20.109,21.924-34.252,47.215-42.528,73.862c-21.657,69.8-3.003,148.93,54.425,201.603
		c21.488,19.709,46.206,33.701,72.26,42.039c70.187,22.44,150.141,3.936,203.214-53.926
		c-69.685,75.976-174.668,100.271-266.826,70.808c-34.209-10.948-66.665-29.32-94.88-55.199
		C7.555,375.486-16.937,271.586,11.5,179.937c10.866-34.988,29.436-68.196,55.84-96.983c19.269-21.008,41.235-38.069,64.887-51.125
		C199.798-5.485,281.106-10.192,352.381,18.77c27.493,11.153,53.494,27.326,76.651,48.564
		C496.848,129.536,523.501,219.856,507.474,304.072z"/>
</g>
<g>
	<path style="fill:#EDBB4C;" d="M177.846,499.849c19.347-1.727,36.979-9.909,49.676-21.939
		c-20.916-8.511-40.71-20.822-58.327-36.982c-29.561-27.113-48.846-61.235-57.658-97.481
		c-26.892,29.812-53.448,60.798-28.578,101.205C111.18,470.522,143.633,488.903,177.846,499.849z"/>
	<path style="fill:#EDBB4C;" d="M206.711,126.524c1.101-0.605,2.214-1.21,3.329-1.791c-1.187-2.835-2.629-5.807-4.311-8.906
		c-19.237-35.313-50.589-65.161-73.5-84.002C108.578,44.886,86.61,61.95,67.339,82.959c-26.403,28.787-44.974,61.992-55.836,96.983
		c31.74,7.039,77.644,18.484,108.724,44.07c8.519-21.004,20.853-40.872,37.07-58.554
		C171.967,149.465,188.697,136.467,206.711,126.524z"/>
	<path style="fill:#EDBB4C;" d="M507.474,304.068c0,0-4.505-0.631-11.595-1.918c1.3-51.938-18.068-104.099-57.494-143.203
		c-7.264-13.81-19.948-21.285-33.524-26.73c-0.013-0.013-0.037-0.025-0.049-0.025c-9.776-6.163-19.96-11.373-30.43-15.605
		c-6.15-2.499-12.412-4.678-18.736-6.522c-0.013-0.013-0.025-0.025-0.049-0.049c-1.535-1.622-2.834-3.403-3.886-5.371
		c-8.564-16.087-4.319-55.774,0.669-85.87c27.497,11.15,53.497,27.324,76.651,48.56C496.845,129.532,523.5,219.857,507.474,304.068z
		"/>
</g>
<path style="fill:#4BC999;" d="M336.944,353.278v81.415c-38.153,0-62.899-0.207-78.852-4.795
	c-9.197-2.646-16.986-8.804-21.847-17.047l0,0c0-0.003,0-0.007-0.004-0.01c-3.045-8.424-7.864-27.793-0.494-42.342
	c4.882-9.642,17.374-9.923,21.143-17.22h80.055V353.278z"/>
<path style="fill:#1E9E67;" d="M269.979,254.481l40.618,81.232l-34.58-18.658c0,0-6.375,11.527-19.127,36.223
	c-3.769,7.296-8.095,15.746-12.975,25.389c-7.37,14.549-10.718,25.75-7.674,34.174l-42.861-72.681
	c-4.252-7.216-4.548-16.105-0.775-23.584l17.733-35.199l-32.015-18.663L269.979,254.481z"/>
<path style="fill:#4BC999;" d="M509.064,294.836c-3.135,20.647-8.746,40.468-16.509,59.182c-1.39,3.354-2.853,6.666-4.389,9.947
	c-3.406,1.306-6.98,2.163-10.658,2.361c-10.794,0.596-17.282-10.083-25.485-9.697l-40.029-69.328l70.509-40.709
	C493.913,266.352,502.868,282.004,509.064,294.836z"/>
<path style="fill:#1E9E67;" d="M492.555,354.018c-11.922,28.745-28.933,54.856-49.914,77.186l-29.602,1.693l-0.104,25.359
	c-1.776,1.39-3.584,2.748-5.402,4.085l-47.615-67.646l50.039-75.796l1.139,39.277c0,0,13.166-0.24,40.928-1.546
	c8.202-0.387,17.69-0.867,28.473-1.463C484.875,354.927,488.897,354.561,492.555,354.018z"/>
<path style="fill:#4BC999;" d="M315.455,256.815l-70.508-40.708c19.076-33.041,31.629-54.368,43.579-65.89
	c6.89-6.642,16.117-10.308,25.686-10.397l0,0c0.003,0.002,0.006,0.004,0.011,0.002c8.818,1.576,28.001,7.085,36.917,20.743
	c5.91,9.049-0.093,20.008,4.341,26.921L315.455,256.815z"/>
<path style="fill:#1E9E67;" d="M434.499,248.22l-90.658-5.44l33.449-20.618c0,0-6.795-11.284-21.807-34.677
	c-4.434-6.912-9.589-14.883-15.499-23.931c-8.915-13.657-16.942-22.157-25.758-23.732l84.374-0.778
	c8.376-0.074,16.221,4.113,20.812,11.121l21.617,32.957l32.17-18.395L434.499,248.22z"/>
<g>
</g>
<g>
</g>
<g>
</g>
<g>
</g>
<g>
</g>
<g>
</g>
<g>
</g>
<g>
</g>
<g>
</g>
<g>
</g>
<g>
</g>
<g>
</g>
<g>
</g>
<g>
</g>
<g>
</g>
</svg>
