<?xml version="1.0" encoding="iso-8859-1"?>
<!-- Generator: Adobe Illustrator 19.0.0, SVG Export Plug-In . SVG Version: 6.00 Build 0)  -->
<svg version="1.1" id="Capa_1" xmlns="http://www.w3.org/2000/svg" xmlns:xlink="http://www.w3.org/1999/xlink" x="0px" y="0px"
	 viewBox="0 0 512 512" style="enable-background:new 0 0 512 512;" xml:space="preserve">
<path style="fill:#FF525D;" d="M512,256c0,141.385-114.615,256-256,256c-8.997,0-17.889-0.46-26.645-1.369
	C109.244,498.207,13.793,402.756,1.369,282.645C0.46,273.889,0,264.997,0,256C0,114.615,114.615,0,256,0
	c8.997,0,17.889,0.46,26.645,1.369c120.111,12.424,215.562,107.875,227.986,227.986C511.54,238.111,512,247.003,512,256z"/>
<circle style="fill:#FF6E7C;" cx="256" cy="213.295" r="213.295"/>
<path style="fill:#E8E8E8;" d="M376.718,135.28c-16.212-16.212-16.211-42.5,0-58.712c16.211-16.212,42.5-16.212,58.712,0
	c16.212,16.212,16.201,42.491-0.01,58.701S392.929,151.491,376.718,135.28z M453.411,33.161L305.744,4.254
	c-13.585-2.659-27.601,1.616-37.389,11.404L1.369,282.645c12.424,120.111,107.875,215.562,227.986,227.986l266.987-266.987
	c9.788-9.788,14.063-23.805,11.404-37.389L478.839,58.588C476.322,45.731,466.269,35.678,453.411,33.161z"/>
<path style="fill:#4BC999;" d="M207.054,293.134l-41.269,41.269c-19.34-19.34-31.78-31.989-37.54-42.401
	c-3.322-6.003-4.147-13.073-2.434-19.716l0,0c0.002-0.002,0.004-0.004,0.004-0.007c2.727-5.813,10.102-18.075,21.212-21.714
	c7.362-2.414,13.838,3.777,19.447,1.988L207.054,293.134z"/>
<path style="fill:#1E9E67;" d="M223.19,209.108l-20.588,61.766l-8.071-26.987c0,0-9.074,2.611-28.058,8.666
	c-5.609,1.788-12.084,3.879-19.447,6.291c-11.11,3.639-18.486,7.62-21.212,13.433l15.115-58.569
	c1.503-5.813,5.858-10.469,11.562-12.348l26.831-8.853l-6.769-25.689L223.19,209.108z"/>
<path style="fill:#4BC999;" d="M278.545,297.734l56.375,15.106c-7.079,26.419-11.814,43.516-17.95,53.711
	c-3.538,5.878-9.247,10.128-15.857,11.965l0,0c-0.002-0.001-0.005-0.001-0.008,0c-6.398,0.545-20.704,0.288-29.411-7.514
	c-5.771-5.169-3.648-13.872-8.001-17.835L278.545,297.734z"/>
<path style="fill:#1E9E67;" d="M197.709,325.773l63.785-13.054l-19.336,20.483c0,0,6.799,6.553,21.533,19.965
	c4.353,3.963,9.401,8.526,15.172,13.695c8.707,7.802,15.842,12.199,22.24,11.654l-58.279,16.194
	c-5.786,1.605-11.995,0.162-16.475-3.839l-21.083-18.809l-18.863,18.706L197.709,325.773z"/>
<path style="fill:#4BC999;" d="M245.059,233.343l-15.106-56.375c26.419-7.079,43.592-11.527,55.49-11.31
	c6.86,0.125,13.395,2.945,18.291,7.751l0,0c0.001,0.002,0.001,0.005,0.004,0.007c3.671,5.268,10.603,17.785,8.198,29.228
	c-1.591,7.583-10.19,10.095-11.446,15.847L245.059,233.343z"/>
<path style="fill:#1E9E67;" d="M309.759,289.33l-43.197-48.712l27.407,6.504c0,0,2.276-9.165,6.523-28.631
	c1.256-5.752,2.683-12.405,4.275-19.987c2.403-11.442,2.644-19.82-1.027-25.087l43.164,42.375
	c4.283,4.208,6.138,10.308,4.913,16.187l-5.748,27.664l25.631,6.983L309.759,289.33z"/>
<g>
</g>
<g>
</g>
<g>
</g>
<g>
</g>
<g>
</g>
<g>
</g>
<g>
</g>
<g>
</g>
<g>
</g>
<g>
</g>
<g>
</g>
<g>
</g>
<g>
</g>
<g>
</g>
<g>
</g>
</svg>
