<?xml version="1.0" encoding="iso-8859-1"?>
<!-- Generator: Adobe Illustrator 19.0.0, SVG Export Plug-In . SVG Version: 6.00 Build 0)  -->
<svg version="1.1" id="Capa_1" xmlns="http://www.w3.org/2000/svg" xmlns:xlink="http://www.w3.org/1999/xlink" x="0px" y="0px"
	 viewBox="0 0 512 512" style="enable-background:new 0 0 512 512;" xml:space="preserve">
<path style="fill:#34ABE0;" d="M512,256c0,75.327-32.528,143.047-84.313,189.889c-17.199,15.559-36.519,28.818-57.48,39.278
	c-22.006,11.003-45.829,18.913-70.896,23.176C285.236,510.746,270.764,512,256,512c-13.667,0-27.094-1.076-40.187-3.145
	c-1.045-0.167-2.09-0.334-3.135-0.512c-1.964-0.334-3.929-0.69-5.883-1.076c-15.757-3.072-31.002-7.586-45.578-13.396
	c-4.023-1.599-7.983-3.302-11.901-5.099c-11.463-5.256-22.486-11.348-32.956-18.181c-8.725-5.684-17.074-11.891-25.015-18.568
	c-2.382-2.006-4.723-4.044-7.032-6.134c-23.552-21.316-43.123-46.937-57.469-75.63C9.665,335.862,0,297.064,0,256
	C0,114.615,114.615,0,256,0S512,114.615,512,256z"/>
<circle style="fill:#72BBE8;" cx="256" cy="213.295" r="213.295"/>
<g>
	<rect x="137.279" y="24.352" style="fill:#D6D6D6;" width="122.483" height="60.677"/>
	<path style="fill:#D6D6D6;" d="M237.965,93.414v0.01l-10.439,54.439l-5.82,30.396l-12.006,62.642l-15.82,82.526l-27.345,142.681
		l-5.319,27.763c-4.023-1.599-7.983-3.302-11.901-5.099c-23.876-10.961-45.767-25.475-65.003-42.883
		c-23.552-21.316-43.123-46.937-57.469-75.63v-192L237.965,93.414z"/>
</g>
<polygon style="fill:#E6E6E6;" points="26.834,178.258 149.32,178.258 259.765,72.552 137.279,72.552 "/>
<path style="fill:#E8E8E8;" d="M370.207,178.26v306.907c-22.006,11.003-45.829,18.913-70.896,23.176
	C285.236,510.746,270.764,512,256,512c-13.667,0-27.094-1.076-40.187-3.145c-1.045-0.167-2.09-0.334-3.135-0.512
	c-1.964-0.334-3.929-0.69-5.883-1.076c-20.104-3.918-39.361-10.177-57.48-18.495V178.26l78.2-30.396l5.653-2.194L370.207,178.26z"/>
<rect x="40.232" y="240.901" style="fill:#FF525D;" width="94.103" height="146.631"/>
<polygon style="fill:#D6D6D6;" points="149.32,178.258 370.21,178.258 259.765,72.552 "/>
<g>
	<rect x="80.886" y="415.138" style="fill:#5C5E70;" width="53.447" height="18.563"/>
	<path style="fill:#5C5E70;" d="M134.332,452.023v18.568H116.36c-8.725-5.684-17.074-11.891-25.015-18.568H134.332z"/>
</g>
<polygon style="fill:#E6E6E6;" points="370.21,178.258 233.172,145.67 149.32,178.258 "/>
<path style="fill:#4BC999;" d="M336.941,353.283v81.416c-38.153,0-62.9-0.207-78.853-4.795c-9.197-2.646-16.986-8.804-21.848-17.048
	l0,0c0-0.003,0-0.007-0.003-0.01c-3.045-8.424-7.864-27.793-0.494-42.342c4.882-9.642,17.375-9.923,21.144-17.22h80.055V353.283z"/>
<path style="fill:#1E9E67;" d="M269.975,254.485l40.618,81.233l-34.581-18.659c0,0-6.375,11.527-19.127,36.223
	c-3.769,7.297-8.095,15.747-12.976,25.389c-7.37,14.549-10.719,25.75-7.674,34.174l-42.862-72.682
	c-4.252-7.216-4.548-16.105-0.775-23.584l17.733-35.199l-32.016-18.663L269.975,254.485z"/>
<path style="fill:#4BC999;" d="M509.064,294.839c-3.135,20.647-8.746,40.469-16.509,59.183c-1.39,3.354-2.853,6.666-4.389,9.947
	c-3.406,1.306-6.98,2.163-10.658,2.361c-10.794,0.596-17.283-10.083-25.485-9.697l-40.03-69.329l70.51-40.709
	C493.913,266.355,502.868,282.008,509.064,294.839z"/>
<path style="fill:#1E9E67;" d="M492.554,354.022c-11.922,28.745-28.933,54.857-49.915,77.187l-29.602,1.693l-0.105,25.36
	c-1.776,1.39-3.584,2.748-5.402,4.086L359.915,394.7l50.04-75.797l1.139,39.278c0,0,13.166-0.24,40.929-1.546
	c8.202-0.387,17.69-0.867,28.473-1.463C484.874,354.931,488.897,354.565,492.554,354.022z"/>
<path style="fill:#4BC999;" d="M315.453,256.818l-70.509-40.708c19.077-33.042,31.629-54.369,43.58-65.891
	c6.89-6.642,16.118-10.308,25.687-10.397l0,0c0.003,0.002,0.006,0.004,0.011,0.002c8.818,1.576,28.001,7.085,36.917,20.743
	c5.91,9.049-0.093,20.009,4.342,26.922L315.453,256.818z"/>
<path style="fill:#1E9E67;" d="M434.498,248.223l-90.66-5.44l33.449-20.618c0,0-6.795-11.284-21.807-34.677
	c-4.435-6.912-9.589-14.884-15.499-23.931c-8.915-13.657-16.942-22.157-25.759-23.733l84.376-0.778
	c8.376-0.074,16.221,4.113,20.812,11.121l21.617,32.957l32.17-18.395L434.498,248.223z"/>
<g>
</g>
<g>
</g>
<g>
</g>
<g>
</g>
<g>
</g>
<g>
</g>
<g>
</g>
<g>
</g>
<g>
</g>
<g>
</g>
<g>
</g>
<g>
</g>
<g>
</g>
<g>
</g>
<g>
</g>
</svg>
