<?xml version="1.0" encoding="iso-8859-1"?>
<!-- Generator: Adobe Illustrator 19.0.0, SVG Export Plug-In . SVG Version: 6.00 Build 0)  -->
<svg version="1.1" id="Capa_1" xmlns="http://www.w3.org/2000/svg" xmlns:xlink="http://www.w3.org/1999/xlink" x="0px" y="0px"
	 viewBox="0 0 512 512" style="enable-background:new 0 0 512 512;" xml:space="preserve">
<path style="fill:#FFD15C;" d="M512,256c0,116.308-77.563,214.507-183.798,245.676C305.309,508.395,281.078,512,256,512
	c-51.106,0-98.712-14.973-138.668-40.782c-30.762-19.853-56.989-46.132-76.8-76.936C14.879,354.408,0,306.939,0,256
	s14.879-98.408,40.532-138.282c8.725-13.573,18.704-26.269,29.759-37.919C116.935,30.647,182.888,0,256,0
	C397.385,0,512,114.615,512,256z"/>
<circle style="fill:#FFDC8D;" cx="256" cy="213.295" r="213.295"/>
<path style="fill:#D6D6D6;" d="M234.517,21.158v31.734h-100.3V21.158c0-9.31,7.544-16.854,16.854-16.854h66.602
	C226.973,4.304,234.517,11.848,234.517,21.158z"/>
<path style="fill:#E8E8E8;" d="M234.517,21.158v31.734h-66.967V21.158c0-9.31,7.544-16.854,16.854-16.854h33.27
	C226.973,4.304,234.517,11.848,234.517,21.158z"/>
<path style="fill:#D6D6D6;" d="M301.913,67.029v4.148H66.821v-4.148c0-12.424,10.073-22.497,22.497-22.497h190.098
	C291.84,44.533,301.913,54.605,301.913,67.029z"/>
<path style="fill:#E8E8E8;" d="M301.913,67.029v4.148H129.682v-4.148c0-12.424,10.073-22.497,22.497-22.497h127.237
	C291.84,44.533,301.913,54.605,301.913,67.029z"/>
<path style="fill:#EF4152;" d="M328.202,94.594v407.083C305.309,508.395,281.078,512,256,512
	c-51.106,0-98.712-14.973-138.668-40.782c-30.762-19.853-56.989-46.132-76.8-76.936V94.594c0-16.593,13.26-30.093,29.759-30.469
	c0.24-0.021,0.481-0.021,0.721-0.021h226.711C314.556,64.103,328.202,77.76,328.202,94.594z"/>
<path style="fill:#FF525D;" d="M328.202,94.594v407.083C305.309,508.395,281.078,512,256,512
	c-51.106,0-98.712-14.973-138.668-40.782V94.594c0-16.833,13.646-30.49,30.48-30.49h149.911
	C314.556,64.103,328.202,77.76,328.202,94.594z"/>
<path style="fill:#FF6E7C;" d="M270.629,465.262L270.629,465.262c-12.696,0-22.988-10.292-22.988-22.988V128.805
	c0-12.696,10.292-22.988,22.988-22.988l0,0c12.695,0,22.988,10.292,22.988,22.988v313.469
	C293.616,454.969,283.324,465.262,270.629,465.262z"/>
<path style="fill:#4BC999;" d="M336.941,353.283v81.416c-38.153,0-62.9-0.207-78.853-4.795c-9.197-2.646-16.986-8.804-21.848-17.048
	l0,0c0-0.003,0-0.007-0.003-0.01c-3.045-8.424-7.864-27.793-0.494-42.342c4.882-9.642,17.375-9.923,21.144-17.22h80.055V353.283z"/>
<path style="fill:#1E9E67;" d="M269.975,254.485l40.618,81.233l-34.581-18.659c0,0-6.375,11.527-19.127,36.223
	c-3.769,7.297-8.095,15.747-12.976,25.389c-7.37,14.549-10.719,25.75-7.674,34.174l-42.862-72.682
	c-4.252-7.216-4.548-16.105-0.775-23.584l17.733-35.199l-32.016-18.663L269.975,254.485z"/>
<path style="fill:#4BC999;" d="M509.064,294.839c-3.135,20.647-8.746,40.469-16.509,59.183c-1.39,3.354-2.853,6.666-4.389,9.947
	c-3.406,1.306-6.98,2.163-10.658,2.361c-10.794,0.596-17.283-10.083-25.485-9.697l-40.03-69.329l70.51-40.709
	C493.913,266.355,502.868,282.008,509.064,294.839z"/>
<path style="fill:#1E9E67;" d="M492.554,354.022c-11.922,28.745-28.933,54.857-49.915,77.187l-29.602,1.693l-0.105,25.36
	c-1.776,1.39-3.584,2.748-5.402,4.086L359.915,394.7l50.04-75.797l1.139,39.278c0,0,13.166-0.24,40.929-1.546
	c8.202-0.387,17.69-0.867,28.473-1.463C484.874,354.931,488.897,354.565,492.554,354.022z"/>
<path style="fill:#4BC999;" d="M315.453,256.818l-70.509-40.708c19.077-33.042,31.629-54.369,43.58-65.891
	c6.89-6.642,16.118-10.308,25.687-10.397l0,0c0.003,0.002,0.006,0.004,0.011,0.002c8.818,1.576,28.001,7.085,36.917,20.743
	c5.91,9.049-0.093,20.009,4.342,26.922L315.453,256.818z"/>
<path style="fill:#1E9E67;" d="M434.498,248.223l-90.66-5.44l33.449-20.618c0,0-6.795-11.284-21.807-34.677
	c-4.435-6.912-9.589-14.884-15.499-23.931c-8.915-13.657-16.942-22.157-25.759-23.733l84.376-0.778
	c8.376-0.074,16.221,4.113,20.812,11.121l21.617,32.957l32.17-18.395L434.498,248.223z"/>
<g>
	<path style="fill:#EF4152;" d="M192.857,191.498h-16.98c-5.699,0-10.318-4.619-10.318-10.318v-65.045
		c0-5.699,4.62-10.318,10.318-10.318h16.98c5.699,0,10.318,4.619,10.318,10.318v65.045
		C203.175,186.879,198.556,191.498,192.857,191.498z"/>
	<path style="fill:#EF4152;" d="M141.526,157.147v-16.98c0-5.699,4.62-10.318,10.318-10.318h65.045
		c5.699,0,10.318,4.619,10.318,10.318v16.98c0,5.699-4.62,10.318-10.318,10.318h-65.045
		C146.146,167.466,141.526,162.846,141.526,157.147z"/>
</g>
<g>
</g>
<g>
</g>
<g>
</g>
<g>
</g>
<g>
</g>
<g>
</g>
<g>
</g>
<g>
</g>
<g>
</g>
<g>
</g>
<g>
</g>
<g>
</g>
<g>
</g>
<g>
</g>
<g>
</g>
</svg>
