<?xml version="1.0" encoding="iso-8859-1"?>
<!-- Generator: Adobe Illustrator 19.0.0, SVG Export Plug-In . SVG Version: 6.00 Build 0)  -->
<svg version="1.1" id="Capa_1" xmlns="http://www.w3.org/2000/svg" xmlns:xlink="http://www.w3.org/1999/xlink" x="0px" y="0px"
	 viewBox="0 0 512 512" style="enable-background:new 0 0 512 512;" xml:space="preserve">
<path style="fill:#494B5B;" d="M512,256c0,1.087-0.01,2.173-0.021,3.26c-0.418,33.165-7.137,64.825-19.028,93.811
	c-1.829,4.462-3.783,8.85-5.851,13.176c-24.085,50.427-64.199,91.732-113.748,117.332c-6.708,3.459-13.573,6.635-20.605,9.509
	c-9.77,3.992-19.843,7.398-30.166,10.167C301.349,508.959,279.03,512,256,512c-40.082,0-78.012-9.206-111.783-25.631
	c-31.399-15.266-59.204-36.759-81.826-62.882c-2.8-3.218-5.507-6.51-8.14-9.874C23.228,373.959,3.636,324.911,0.46,271.454
	C0.157,266.344,0,261.193,0,256c0-10.418,0.627-20.689,1.839-30.783c0.982-8.286,2.372-16.447,4.138-24.461
	C31.232,85.922,133.58,0,256,0C397.385,0,512,114.615,512,256z"/>
<g>
	<path style="fill:#D6D6D6;" d="M227.401,353.562v134.154c-33.677,0-61.022-0.094-83.184-1.348
		c-35.276-17.147-66.017-42.162-89.966-72.756c-0.178-10.7,1.432-21.849,6.405-31.671c8.035-15.893,28.62-16.353,34.837-28.379
		H227.401z"/>
	<path style="fill:#D6D6D6;" d="M511.979,259.26c-0.418,33.165-7.137,64.825-19.028,93.811c-1.829,4.462-3.783,8.85-5.851,13.176
		c-8.547,4.765-18.087,8.276-28.076,8.819c-17.784,0.982-28.484-16.614-41.994-15.987l-65.954-114.228l116.172-67.082
		C486.651,211.372,501.729,237.746,511.979,259.26z"/>
	<path style="fill:#D6D6D6;" d="M191.993,194.617L75.814,127.541c31.434-54.444,52.115-89.586,71.807-108.571
		c11.352-10.945,26.557-16.985,42.326-17.131l0,0c0.005,0.003,0.01,0.006,0.019,0.004c14.529,2.596,46.14,11.676,60.829,34.179
		c9.737,14.91-0.154,32.97,7.153,44.359L191.993,194.617z"/>
</g>
<path style="fill:#34ABE0;" d="M383.791,129.949c-16.835-15.442-35.739-27.199-55.727-35.307
	c-51.819-21.056-110.929-17.634-160.055,9.495c-17.196,9.492-33.165,21.895-47.174,37.169
	c-19.196,20.928-32.697,45.072-40.596,70.508c-20.673,66.63-2.867,142.167,51.952,192.447c20.512,18.814,44.107,32.17,68.979,40.13
	c67,21.42,143.323,3.757,193.985-51.478c24.255-26.444,39.424-58.006,45.663-90.852C452.471,240.833,433.094,175.17,383.791,129.949
	z"/>
<g>
	<path style="fill:#FFD15C;" d="M168.009,104.137c-17.196,9.492-33.165,21.895-47.174,37.169
		c-19.196,20.928-32.697,45.072-40.596,70.508c31.627,7.011,82.567,20.047,98.657,57.279
		c20.705,47.912-81.261,79.043-46.704,135.169c20.512,18.814,44.107,32.17,68.979,40.13c17.918-1.6,33.813-10.804,42.84-23.707
		c0,0,46.764-47.276,22.746-89.72s-68.61-47.618-68.292-81.352c0.318-33.735,47.071-40.19,22.976-84.406
		C207.456,139.534,184.663,117.828,168.009,104.137z"/>
	<path style="fill:#FFD15C;" d="M440.819,302.058c0,0-3.275-0.459-8.43-1.395c-18.245-3.329-60.008-12.677-63.49-29.132
		c-4.463-21.098,34.053-33.414,24.589-67.611c-0.747-2.708-1.727-5.146-2.898-7.369c-5.281-10.04-14.502-15.475-24.372-19.433
		c-0.009-0.009-0.027-0.018-0.036-0.018c-13.514-5.407-28.232-8.079-35.744-16.086c-0.008-0.009-0.018-0.018-0.036-0.036
		c-1.116-1.179-2.061-2.474-2.825-3.905c-6.226-11.696-3.14-40.548,0.486-62.428c19.991,8.106,38.893,19.865,55.727,35.303
		C433.091,175.167,452.47,240.834,440.819,302.058z"/>
</g>
<path id="SVGCleanerId_0" style="fill:#279FC9;" d="M440.819,302.06c-6.24,32.845-21.408,64.409-45.663,90.853
	c18.473-20.14,30.025-44.178,34.777-69.193c8.874-46.63-5.884-96.639-43.433-131.08c-12.822-11.76-27.219-20.715-42.441-26.889
	c-39.465-16.036-84.484-13.43-121.898,7.231c-13.097,7.23-25.258,16.676-35.928,28.307c-14.619,15.939-24.902,34.326-30.919,53.698
	c-15.745,50.745-2.184,108.274,39.567,146.568c15.622,14.329,33.592,24.501,52.534,30.563
	c51.027,16.314,109.155,2.862,147.739-39.206c-50.662,55.235-126.986,72.898-193.985,51.478
	c-24.871-7.96-48.467-21.316-68.979-40.13c-54.82-50.282-72.627-125.817-51.952-192.448c7.899-25.436,21.401-49.579,40.596-70.508
	c14.009-15.273,29.978-27.676,47.174-37.169c49.125-27.128,108.237-30.551,160.055-9.494c19.988,8.108,38.891,19.866,55.725,35.307
	C433.094,175.17,452.471,240.833,440.819,302.06z"/>
<g>
	<path id="SVGCleanerId_0_1_" style="fill:#279FC9;" d="M440.819,302.06c-6.24,32.845-21.408,64.409-45.663,90.853
		c18.473-20.14,30.025-44.178,34.777-69.193c8.874-46.63-5.884-96.639-43.433-131.08c-12.822-11.76-27.219-20.715-42.441-26.889
		c-39.465-16.036-84.484-13.43-121.898,7.231c-13.097,7.23-25.258,16.676-35.928,28.307c-14.619,15.939-24.902,34.326-30.919,53.698
		c-15.745,50.745-2.184,108.274,39.567,146.568c15.622,14.329,33.592,24.501,52.534,30.563
		c51.027,16.314,109.155,2.862,147.739-39.206c-50.662,55.235-126.986,72.898-193.985,51.478
		c-24.871-7.96-48.467-21.316-68.979-40.13c-54.82-50.282-72.627-125.817-51.952-192.448c7.899-25.436,21.401-49.579,40.596-70.508
		c14.009-15.273,29.978-27.676,47.174-37.169c49.125-27.128,108.237-30.551,160.055-9.494c19.988,8.108,38.891,19.866,55.725,35.307
		C433.094,175.17,452.471,240.833,440.819,302.06z"/>
</g>
<g>
	<path style="fill:#EDBB4C;" d="M201.175,444.393c14.065-1.256,26.884-7.204,36.115-15.95
		c-15.206-6.187-29.597-15.138-42.405-26.886c-21.491-19.712-35.512-44.519-41.918-70.87c-19.551,21.673-38.858,44.2-20.776,73.578
		C152.708,423.072,176.301,436.435,201.175,444.393z"/>
	<path style="fill:#EDBB4C;" d="M222.161,172.98c0.8-0.44,1.61-0.88,2.42-1.302c-0.863-2.061-1.911-4.221-3.135-6.474
		c-13.986-25.673-36.779-47.373-53.436-61.071c-17.195,9.496-33.166,21.901-47.175,37.175
		c-19.196,20.928-32.697,45.07-40.594,70.508c23.076,5.118,56.449,13.438,79.044,32.04c6.193-15.27,15.16-29.715,26.951-42.569
		C196.901,189.658,209.064,180.209,222.161,172.98z"/>
	<path style="fill:#EDBB4C;" d="M440.819,302.058c0,0-3.275-0.459-8.43-1.395c0.945-37.759-13.135-75.681-41.799-104.11
		c-5.281-10.04-14.502-15.475-24.372-19.433c-0.009-0.009-0.027-0.018-0.036-0.018c-7.107-4.481-14.512-8.268-22.123-11.344
		c-4.471-1.817-9.024-3.401-13.621-4.742c-0.008-0.009-0.018-0.018-0.036-0.036c-1.116-1.179-2.061-2.474-2.825-3.905
		c-6.226-11.696-3.14-40.548,0.486-62.428c19.991,8.106,38.893,19.865,55.727,35.303
		C433.091,175.167,452.47,240.834,440.819,302.058z"/>
</g>
<g>
	<path style="fill:#E6E6E6;" d="M183.986,324.618l-56.978-30.741c0,0-10.501,18.996-31.514,59.685
		c-6.217,12.027-13.343,25.945-21.379,41.838c-5.256,10.365-9.268,19.707-11.724,28.087c-2.8-3.218-5.507-6.51-8.14-9.874
		C23.228,373.959,3.636,324.911,0.46,271.454l18.328-36.362l-16.948-9.874c0.982-8.286,2.372-16.447,4.138-24.461l111.083-9.979
		L183.986,324.618z"/>
	<path style="fill:#E6E6E6;" d="M492.951,353.071c-23.124,56.393-65.797,102.714-119.599,130.508l-20.574,1.17l-0.031,8.338
		c-9.77,3.992-19.843,7.398-30.166,10.167l-57.323-81.45l82.453-124.886l1.87,64.711c0,0,21.703-0.397,67.448-2.55
		c13.51-0.627,29.132-1.421,46.916-2.393C475.021,356.07,484.718,354.962,492.951,353.071z"/>
	<path style="fill:#E6E6E6;" d="M388.146,180.456l-149.383-8.964l55.115-33.974c0,0-11.197-18.593-35.932-57.137
		c-7.307-11.39-15.801-24.523-25.538-39.433c-14.69-22.504-27.915-36.51-42.444-39.105l139.027-1.283
		c13.801-0.122,26.728,6.777,34.294,18.323l35.618,54.304l53.008-30.309L388.146,180.456z"/>
</g>
<g>
</g>
<g>
</g>
<g>
</g>
<g>
</g>
<g>
</g>
<g>
</g>
<g>
</g>
<g>
</g>
<g>
</g>
<g>
</g>
<g>
</g>
<g>
</g>
<g>
</g>
<g>
</g>
<g>
</g>
</svg>
