<?xml version="1.0" encoding="iso-8859-1"?>
<!-- Generator: Adobe Illustrator 19.0.0, SVG Export Plug-In . SVG Version: 6.00 Build 0)  -->
<svg version="1.1" id="Capa_1" xmlns="http://www.w3.org/2000/svg" xmlns:xlink="http://www.w3.org/1999/xlink" x="0px" y="0px"
	 viewBox="0 0 512 512" style="enable-background:new 0 0 512 512;" xml:space="preserve">
<path style="fill:#FF525D;" d="M512,256c0,124.594-89.015,228.404-206.911,251.298C289.207,510.38,272.791,512,256,512
	c-79.673,0-150.852-36.404-197.81-93.477c-17.941-21.817-32.34-46.644-42.329-73.623C5.601,317.21,0,287.253,0,256
	c0-31.107,5.548-60.928,15.726-88.513c0-0.01,0-0.021,0.01-0.021C51.754,69.716,145.742,0,256,0C397.385,0,512,114.615,512,256z"/>
<circle style="fill:#FF6E7C;" cx="256" cy="213.295" r="213.295"/>
<path style="fill:#34ABE0;" d="M329.686,243.346v193.432c0,26.655-9.195,51.158-24.597,70.52C289.207,510.38,272.791,512,256,512
	c-79.673,0-150.852-36.404-197.81-93.477c-17.941-21.817-32.34-46.644-42.329-73.623C5.601,317.21,0,287.253,0,256
	c0-31.107,5.548-60.928,15.726-88.513c0-0.01,0-0.021,0.01-0.021c12.487-13.855,28.338-24.618,46.268-30.992v-30.657h192.261v30.657
	C298.214,152.095,329.686,194.048,329.686,243.346z"/>
<path style="fill:#72BBE8;" d="M264.359,304.347L264.359,304.347c-15.004,0-27.167-12.164-27.167-27.167v-54.335
	c0-15.004,12.164-27.167,27.167-27.167l0,0c15.004,0,27.167,12.164,27.167,27.167v54.335
	C291.527,292.184,279.363,304.347,264.359,304.347z"/>
<path style="fill:#279FC9;" d="M102.128,105.817v30.657c-25.6,15.621-43.938,57.574-43.938,106.872v175.177
	c-17.941-21.817-32.34-46.644-42.329-73.623C5.601,317.21,0,287.253,0,256c0-31.107,5.548-60.928,15.726-88.513
	c12.476-13.866,28.348-24.628,46.279-31.013v-30.657L102.128,105.817L102.128,105.817z"/>
<g>
	<path style="fill:#34ABE0;" d="M266.627,91.711c0,8.652-7.011,15.673-15.673,15.673H65.327c-4.326,0-8.255-1.755-11.086-4.598
		c-2.832-2.832-4.587-6.75-4.587-11.076c0-8.652,7.011-15.673,15.673-15.673h185.626c4.336,0,8.244,1.755,11.086,4.598
		C264.871,83.466,266.627,87.385,266.627,91.711z"/>
	<path style="fill:#34ABE0;" d="M266.627,91.711c0,8.652-7.011,15.673-15.673,15.673H115.116c-4.326,0-8.244-1.755-11.086-4.598
		c-2.832-2.832-4.587-6.75-4.587-11.076c0-8.652,7.022-15.673,15.673-15.673h135.837c4.336,0,8.244,1.755,11.086,4.598
		C264.871,83.466,266.627,87.385,266.627,91.711z"/>
</g>
<path style="fill:#279FC9;" d="M329.686,333.605v103.173c0,26.655-9.195,51.158-24.597,70.52C289.207,510.38,272.791,512,256,512
	c-110.122,0-204.016-69.538-240.138-167.1l8.171-17.565L74.188,432.87l16.718-61.649l58.514,78.367l49.11-85.682l34.482,34.482
	l54.335-54.335l18.808,66.873L329.686,333.605z"/>
<path style="fill:#4BC999;" d="M336.941,353.283v81.416c-38.153,0-62.9-0.207-78.853-4.795c-9.197-2.646-16.986-8.804-21.848-17.048
	l0,0c0-0.003,0-0.007-0.003-0.01c-3.045-8.424-7.864-27.793-0.494-42.342c4.882-9.642,17.375-9.923,21.144-17.22h80.055V353.283z"/>
<path style="fill:#1E9E67;" d="M269.975,254.485l40.618,81.233l-34.581-18.659c0,0-6.375,11.527-19.127,36.223
	c-3.769,7.297-8.095,15.747-12.976,25.389c-7.37,14.549-10.719,25.75-7.674,34.174l-42.862-72.682
	c-4.252-7.216-4.548-16.105-0.775-23.584l17.733-35.199l-32.016-18.663L269.975,254.485z"/>
<path style="fill:#4BC999;" d="M509.064,294.839c-3.135,20.647-8.746,40.469-16.509,59.183c-1.39,3.354-2.853,6.666-4.389,9.947
	c-3.406,1.306-6.98,2.163-10.658,2.361c-10.794,0.596-17.283-10.083-25.485-9.697l-40.03-69.329l70.51-40.709
	C493.913,266.355,502.868,282.008,509.064,294.839z"/>
<path style="fill:#1E9E67;" d="M492.554,354.022c-11.922,28.745-28.933,54.857-49.915,77.187l-29.602,1.693l-0.105,25.36
	c-1.776,1.39-3.584,2.748-5.402,4.086L359.915,394.7l50.04-75.797l1.139,39.278c0,0,13.166-0.24,40.929-1.546
	c8.202-0.387,17.69-0.867,28.473-1.463C484.874,354.931,488.897,354.565,492.554,354.022z"/>
<path style="fill:#4BC999;" d="M315.453,256.818l-70.509-40.708c19.077-33.042,31.629-54.369,43.58-65.891
	c6.89-6.642,16.118-10.308,25.687-10.397l0,0c0.003,0.002,0.006,0.004,0.011,0.002c8.818,1.576,28.001,7.085,36.917,20.743
	c5.91,9.049-0.093,20.009,4.342,26.922L315.453,256.818z"/>
<path style="fill:#1E9E67;" d="M434.498,248.223l-90.66-5.44l33.449-20.618c0,0-6.795-11.284-21.807-34.677
	c-4.435-6.912-9.589-14.884-15.499-23.931c-8.915-13.657-16.942-22.157-25.759-23.733l84.376-0.778
	c8.376-0.074,16.221,4.113,20.812,11.121l21.617,32.957l32.17-18.395L434.498,248.223z"/>
<g>
</g>
<g>
</g>
<g>
</g>
<g>
</g>
<g>
</g>
<g>
</g>
<g>
</g>
<g>
</g>
<g>
</g>
<g>
</g>
<g>
</g>
<g>
</g>
<g>
</g>
<g>
</g>
<g>
</g>
</svg>
