<?xml version="1.0" encoding="iso-8859-1"?>
<!-- Generator: Adobe Illustrator 19.0.0, SVG Export Plug-In . SVG Version: 6.00 Build 0)  -->
<svg version="1.1" id="Capa_1" xmlns="http://www.w3.org/2000/svg" xmlns:xlink="http://www.w3.org/1999/xlink" x="0px" y="0px"
	 viewBox="0 0 512 512" style="enable-background:new 0 0 512 512;" xml:space="preserve">
<path style="fill:#E8E8E8;" d="M512,256c0,84.741-41.169,159.859-104.605,206.451C364.993,493.599,312.654,512,256,512
	c-68.368,0-130.476-26.802-176.389-70.468C38.578,402.505,10.47,350.009,2.393,291.14v-0.01C0.815,279.646,0,267.922,0,256
	C0,114.615,114.615,0,256,0S512,114.615,512,256z"/>
<circle style="fill:#F4F4F4;" cx="256" cy="213.295" r="213.295"/>
<path style="fill:#5C5E70;" d="M426.109,384.554c0,31.723-6.677,57.344-18.714,77.897C364.993,493.599,312.654,512,256,512
	C126.537,512,19.519,415.89,2.393,291.129C36.801,207.214,114.479,140.936,204.8,140.936
	C327.022,140.936,426.109,262.322,426.109,384.554z"/>
<path style="fill:#494B5B;" d="M74.303,384.554c0,21.755,1.849,40.636,5.308,56.978C38.578,402.505,10.47,350.009,2.393,291.14
	v-0.01c34.408-83.916,112.086-150.183,202.397-150.183C132.733,140.946,74.303,262.322,74.303,384.554z"/>
<path style="fill:#5C5E70;" d="M169.137,77.09c0-18.484-32.113-27.29-32.113-77.088H272.57c0,49.8-32.113,58.604-32.113,77.088
	l-36.755,24.294"/>
<path style="fill:#494B5B;" d="M191.373,77.092h-22.247c0-18.481-32.102-27.294-32.102-77.09h42.258
	C179.28,49.798,191.373,58.61,191.373,77.092z"/>
<g>
	<path style="fill:#FF525D;" d="M240.09,113.784h-70.587c-10.132,0-18.347,8.214-18.347,18.347l0,0
		c0,10.132,8.214,18.347,18.347,18.347h70.587c10.132,0,18.347-8.214,18.347-18.347l0,0
		C258.437,121.998,250.223,113.784,240.09,113.784z"/>
	<path style="fill:#FF525D;" d="M240.09,77.09h-70.587c-10.132,0-18.347,8.214-18.347,18.347l0,0
		c0,10.132,8.214,18.347,18.347,18.347h70.587c10.132,0,18.347-8.214,18.347-18.347l0,0C258.437,85.304,250.223,77.09,240.09,77.09z
		"/>
</g>
<g>
	<path style="fill:#EF4152;" d="M186.834,145.106c3.319,3.319,7.911,5.373,12.977,5.373h-30.304c-5.066,0-9.658-2.054-12.977-5.373
		c-3.319-3.329-5.373-7.911-5.373-12.977c0-10.13,8.219-18.349,18.349-18.349h30.304c-10.13,0-18.349,8.219-18.349,18.349
		C181.461,137.195,183.515,141.777,186.834,145.106z"/>
	<path style="fill:#EF4152;" d="M186.834,108.407c3.319,3.319,7.911,5.373,12.977,5.373h-30.304c-5.066,0-9.658-2.055-12.977-5.373
		c-3.319-3.319-5.373-7.9-5.373-12.966c0-10.142,8.219-18.349,18.349-18.349h30.304c-10.13,0-18.349,8.208-18.349,18.349
		C181.461,100.507,183.515,105.089,186.834,108.407z"/>
</g>
<path style="fill:#4BC999;" d="M336.941,353.283v81.416c-38.153,0-62.9-0.207-78.853-4.795c-9.197-2.646-16.986-8.804-21.848-17.048
	l0,0c0-0.003,0-0.007-0.003-0.01c-3.045-8.424-7.864-27.793-0.494-42.342c4.882-9.642,17.375-9.923,21.144-17.22h80.055V353.283z"/>
<path style="fill:#1E9E67;" d="M269.975,254.485l40.618,81.233l-34.581-18.659c0,0-6.375,11.527-19.127,36.223
	c-3.769,7.297-8.095,15.747-12.976,25.389c-7.37,14.549-10.719,25.75-7.674,34.174l-42.862-72.682
	c-4.252-7.216-4.548-16.105-0.775-23.584l17.733-35.199l-32.016-18.663L269.975,254.485z"/>
<path style="fill:#4BC999;" d="M509.064,294.839c-3.135,20.647-8.746,40.469-16.509,59.183c-1.39,3.354-2.853,6.666-4.389,9.947
	c-3.406,1.306-6.98,2.163-10.658,2.361c-10.794,0.596-17.283-10.083-25.485-9.697l-40.03-69.329l70.51-40.709
	C493.913,266.355,502.868,282.008,509.064,294.839z"/>
<path style="fill:#1E9E67;" d="M492.554,354.022c-11.922,28.745-28.933,54.857-49.915,77.187l-29.602,1.693l-0.105,25.36
	c-1.776,1.39-3.584,2.748-5.402,4.086L359.915,394.7l50.04-75.797l1.139,39.278c0,0,13.166-0.24,40.929-1.546
	c8.202-0.387,17.69-0.867,28.473-1.463C484.874,354.931,488.897,354.565,492.554,354.022z"/>
<path style="fill:#4BC999;" d="M315.453,256.818l-70.509-40.708c19.077-33.042,31.629-54.369,43.58-65.891
	c6.89-6.642,16.118-10.308,25.687-10.397l0,0c0.003,0.002,0.006,0.004,0.011,0.002c8.818,1.576,28.001,7.085,36.917,20.743
	c5.91,9.049-0.093,20.009,4.342,26.922L315.453,256.818z"/>
<path style="fill:#1E9E67;" d="M434.498,248.223l-90.66-5.44l33.449-20.618c0,0-6.795-11.284-21.807-34.677
	c-4.435-6.912-9.589-14.884-15.499-23.931c-8.915-13.657-16.942-22.157-25.759-23.733l84.376-0.778
	c8.376-0.074,16.221,4.113,20.812,11.121l21.617,32.957l32.17-18.395L434.498,248.223z"/>
<g>
</g>
<g>
</g>
<g>
</g>
<g>
</g>
<g>
</g>
<g>
</g>
<g>
</g>
<g>
</g>
<g>
</g>
<g>
</g>
<g>
</g>
<g>
</g>
<g>
</g>
<g>
</g>
<g>
</g>
</svg>
