<?xml version="1.0" encoding="iso-8859-1"?>
<!-- Generator: Adobe Illustrator 19.0.0, SVG Export Plug-In . SVG Version: 6.00 Build 0)  -->
<svg version="1.1" id="Capa_1" xmlns="http://www.w3.org/2000/svg" xmlns:xlink="http://www.w3.org/1999/xlink" x="0px" y="0px"
	 viewBox="0 0 512 512" style="enable-background:new 0 0 512 512;" xml:space="preserve">
<path style="fill:#34ABE0;" d="M512,256c0,92.264-48.807,173.129-122.023,218.175c-19.958,12.288-41.723,21.901-64.815,28.369
	C303.167,508.709,279.96,512,256,512s-47.167-3.291-69.162-9.456c-23.092-6.468-44.857-16.081-64.815-28.369
	C48.807,429.129,0,348.264,0,256C0,116.199,112.064,2.589,251.261,0.06C252.84,0.024,254.42,0,256,0c1.579,0,3.159,0.024,4.738,0.06
	C399.935,2.588,512,116.199,512,256z"/>
<circle style="fill:#72BBE8;" cx="256" cy="213.295" r="213.295"/>
<path style="fill:#5C5560;" d="M389.977,474.175C351.002,498.166,305.121,512,256,512s-95.002-13.834-133.977-37.825
	c37.063-13.448,83.529-21.452,133.977-21.452S352.914,460.727,389.977,474.175z"/>
<path style="fill:#FF525D;" d="M446.976,216.137c0,112.494-46.728,214.079-121.814,286.407C303.167,508.709,279.96,512,256,512
	s-47.167-3.291-69.162-9.456C111.741,430.216,65.014,328.631,65.014,216.137c0-18.108,1.212-35.944,3.553-53.415
	C83.132,54.241,169.566,0,256,0c86.424,0,172.847,54.241,187.423,162.722C445.764,180.193,446.976,198.029,446.976,216.137z"/>
<circle style="fill:#E8E8E8;" cx="256" cy="196.765" r="140.016"/>
<path style="fill:#D6D6D6;" d="M255.997,56.75c-8.398,0-16.623,0.742-24.615,2.159c65.589,11.632,115.399,68.926,115.399,137.854
	s-49.809,126.222-115.399,137.854c7.991,1.417,16.216,2.159,24.615,2.159c77.327,0,140.013-62.686,140.013-140.013
	C396.01,119.436,333.323,56.75,255.997,56.75z"/>
<path style="fill:#EF4152;" d="M255.997,348.315c-83.566,0-151.551-67.985-151.551-151.551c0-83.565,67.985-151.55,151.551-151.55
	s151.551,67.985,151.551,151.55C407.548,280.329,339.563,348.315,255.997,348.315z M255.997,68.288
	c-70.841,0-128.475,57.633-128.475,128.474s57.634,128.475,128.475,128.475s128.475-57.634,128.475-128.475
	S326.838,68.288,255.997,68.288z"/>
<path style="fill:#4BC999;" d="M248.606,227.718v51.662c-24.21,0-39.913-0.131-50.036-3.043
	c-5.836-1.678-10.778-5.587-13.864-10.818l0,0c0-0.002,0-0.004-0.002-0.007c-1.932-5.346-4.99-17.636-0.313-26.869
	c3.097-6.119,11.025-6.297,13.416-10.928h50.799V227.718z"/>
<path style="fill:#1E9E67;" d="M206.113,165.026l25.775,51.546l-21.943-11.84c0,0-4.045,7.314-12.138,22.986
	c-2.392,4.63-5.137,9.991-8.234,16.11c-4.677,9.233-6.801,16.34-4.869,21.685l-27.198-46.12c-2.698-4.579-2.886-10.219-0.492-14.965
	l11.253-22.336l-20.315-11.842L206.113,165.026z"/>
<path style="fill:#4BC999;" d="M296.233,185.85l44.74-25.831c12.105,20.967,19.843,34.631,22.383,44.854
	c1.465,5.893,0.551,12.127-2.437,17.414l0,0c-0.002,0.001-0.004,0.002-0.005,0.005c-3.663,4.346-12.778,13.14-23.112,13.706
	c-6.847,0.376-10.966-6.4-16.172-6.156L296.233,185.85z"/>
<path style="fill:#1E9E67;" d="M263.186,253.996l31.753-48.095l0.718,24.923c0,0,8.357-0.155,25.975-0.982
	c5.206-0.243,11.221-0.548,18.068-0.925c10.334-0.566,17.551-2.28,21.215-6.626l-26.342,46.614
	c-2.616,4.626-7.407,7.609-12.714,7.909l-24.969,1.423l-0.098,23.514L263.186,253.996z"/>
<path style="fill:#4BC999;" d="M234.97,166.507l-44.74-25.831c12.105-20.967,20.07-34.5,27.653-41.812
	c4.372-4.215,10.227-6.541,16.299-6.597l0,0c0.002,0.001,0.004,0.002,0.007,0.001c5.595,1,17.768,4.496,23.426,13.163
	c3.75,5.742-0.06,12.697,2.754,17.083L234.97,166.507z"/>
<path style="fill:#1E9E67;" d="M310.509,161.052l-57.528-3.452l21.225-13.083c0,0-4.312-7.161-13.838-22.003
	c-2.814-4.386-6.084-9.444-9.835-15.186c-5.657-8.666-10.75-14.06-16.345-15.059l53.54-0.494c5.314-0.047,10.293,2.61,13.206,7.056
	l13.716,20.913l20.413-11.673L310.509,161.052z"/>
<g>
</g>
<g>
</g>
<g>
</g>
<g>
</g>
<g>
</g>
<g>
</g>
<g>
</g>
<g>
</g>
<g>
</g>
<g>
</g>
<g>
</g>
<g>
</g>
<g>
</g>
<g>
</g>
<g>
</g>
</svg>
