<?xml version="1.0" encoding="iso-8859-1"?>
<!-- Generator: Adobe Illustrator 19.0.0, SVG Export Plug-In . SVG Version: 6.00 Build 0)  -->
<svg version="1.1" id="Capa_1" xmlns="http://www.w3.org/2000/svg" xmlns:xlink="http://www.w3.org/1999/xlink" x="0px" y="0px"
	 viewBox="0 0 511.999 511.999" style="enable-background:new 0 0 511.999 511.999;" xml:space="preserve">
<circle style="fill:#FF525D;" cx="255.999" cy="255.999" r="255.999"/>
<circle style="fill:#FF6E7C;" cx="255.999" cy="213.295" r="213.295"/>
<path style="fill:#D6D6D6;" d="M150.788,60.982c-2.805,0-5.586-1.214-7.496-3.559l-28.34-34.78
	c-3.37-4.137-2.749-10.222,1.388-13.593c4.135-3.371,10.221-2.75,13.593,1.388l28.34,34.781c3.37,4.137,2.749,10.222-1.388,13.593
	C155.093,60.272,152.933,60.982,150.788,60.982z"/>
<path style="fill:#E8E8E8;" d="M313.755,505.447c-3.114,0.731-6.248,1.39-9.404,1.996c-15.663,2.988-31.817,4.556-48.347,4.556
	c-16.52,0-32.674-1.567-48.326-4.556c-15.433-2.957-30.386-7.283-44.711-12.873h-0.01c-11.557-4.514-22.685-9.832-33.353-15.914
	c-0.376-0.209-0.752-0.428-1.118-0.648c-0.125-0.063-0.24-0.136-0.355-0.209c-4.148-2.393-8.223-4.901-12.225-7.523
	c-3.709-2.424-7.356-4.942-10.93-7.555c-6.039-4.42-11.87-9.091-17.492-14.023l7.325-367.688V81l12.069-31.608h186.357L305.302,81
	v0.01L313.755,505.447z"/>
<path style="fill:#D6D6D6;" d="M148.097,49.392l-3.553,9.31L136.029,81v0.01l-7.544,378.702l-0.355,18.087
	c-4.148-2.393-8.223-4.901-12.225-7.523c-3.709-2.424-7.356-4.942-10.93-7.555c-6.039-4.42-11.87-9.091-17.492-14.023l7.325-367.688
	V81l12.069-31.608L148.097,49.392L148.097,49.392z"/>
<path style="fill:#FFD15C;" d="M336.387,104.834V483.62c0,7.241-3.239,13.74-8.349,18.108c-4.702,1.379-9.467,2.623-14.284,3.72
	c-3.114,0.731-6.248,1.39-9.404,1.996h-96.674c-15.433-2.957-30.386-7.283-44.711-12.873h-0.01
	c-11.557-4.514-22.685-9.832-33.353-15.914c-0.376-0.209-0.752-0.428-1.118-0.648c-0.125-0.063-0.24-0.136-0.355-0.209
	c-4.148-2.393-8.223-4.901-12.225-7.523c-3.709-2.424-7.356-4.942-10.93-7.555c-6.039-4.42-11.87-9.091-17.492-14.023
	c-8.432-7.367-16.374-15.287-23.761-23.698V104.834c0-13.155,10.668-23.824,23.824-23.824h225.018
	C325.719,81.011,336.387,91.679,336.387,104.834z"/>
<path style="fill:#EDBB4C;" d="M128.485,81.011v396.998c-0.125-0.063-0.24-0.136-0.355-0.209c-4.148-2.393-8.223-4.901-12.225-7.523
	c-3.709-2.424-7.356-4.942-10.93-7.555c-6.039-4.42-11.87-9.091-17.492-14.023c-8.432-7.367-16.374-15.287-23.761-23.698V104.834
	c0-13.155,10.668-23.824,23.824-23.824H128.485z"/>
<path style="fill:#FFDC8D;" d="M302.93,364.951h-26.979c-6.4,0-11.588-5.188-11.588-11.588v-221.33
	c0-6.4,5.188-11.588,11.588-11.588h26.979c6.4,0,11.588,5.188,11.588,11.588v221.33C314.518,359.763,309.33,364.951,302.93,364.951z
	"/>
<path style="fill:#4BC999;" d="M336.944,353.282v81.416c-38.153,0-62.9-0.207-78.853-4.795c-9.197-2.646-16.986-8.804-21.848-17.047
	l0,0c0-0.003,0-0.007-0.003-0.01c-3.045-8.424-7.864-27.793-0.494-42.342c4.882-9.642,17.375-9.923,21.143-17.22h80.055V353.282z"/>
<path style="fill:#1E9E67;" d="M269.979,254.484l40.618,81.233l-34.581-18.659c0,0-6.375,11.527-19.127,36.223
	c-3.769,7.297-8.095,15.747-12.976,25.389c-7.37,14.549-10.719,25.75-7.674,34.174l-42.862-72.682
	c-4.252-7.216-4.548-16.105-0.775-23.584l17.733-35.199l-32.016-18.663L269.979,254.484z"/>
<path style="fill:#4BC999;" d="M509.067,294.838c-3.135,20.647-8.746,40.469-16.509,59.183c-1.39,3.354-2.853,6.666-4.389,9.947
	c-3.406,1.306-6.98,2.163-10.658,2.361c-10.794,0.596-17.283-10.083-25.485-9.697l-40.03-69.329l70.51-40.709
	C493.916,266.354,502.871,282.007,509.067,294.838z"/>
<path style="fill:#1E9E67;" d="M492.558,354.021c-11.922,28.745-28.933,54.857-49.915,77.186l-29.602,1.693l-0.104,25.36
	c-1.776,1.39-3.584,2.748-5.402,4.086l-47.616-67.647l50.04-75.797l1.139,39.278c0,0,13.166-0.24,40.929-1.546
	c8.202-0.387,17.69-0.867,28.473-1.463C484.878,354.93,488.9,354.564,492.558,354.021z"/>
<path style="fill:#4BC999;" d="M315.456,256.818l-70.509-40.708c19.077-33.042,31.629-54.369,43.579-65.891
	c6.89-6.642,16.118-10.308,25.688-10.397l0,0c0.003,0.002,0.006,0.004,0.011,0.002c8.818,1.576,28.001,7.085,36.917,20.743
	c5.91,9.049-0.093,20.009,4.342,26.922L315.456,256.818z"/>
<path style="fill:#1E9E67;" d="M434.5,248.222l-90.659-5.44l33.449-20.618c0,0-6.795-11.284-21.807-34.677
	c-4.435-6.912-9.589-14.883-15.499-23.931c-8.915-13.657-16.942-22.157-25.759-23.733l84.375-0.778
	c8.376-0.074,16.221,4.113,20.812,11.121l21.617,32.957l32.17-18.395L434.5,248.222z"/>
<path style="fill:#FFD15C;" d="M312.428,502.177v3.574c-2.675,0.616-5.371,1.17-8.077,1.693
	c-15.663,2.988-31.817,4.556-48.347,4.556c-16.52,0-32.674-1.567-48.326-4.556c-7.502-1.432-14.879-3.197-22.131-5.266"/>
<g>
</g>
<g>
</g>
<g>
</g>
<g>
</g>
<g>
</g>
<g>
</g>
<g>
</g>
<g>
</g>
<g>
</g>
<g>
</g>
<g>
</g>
<g>
</g>
<g>
</g>
<g>
</g>
<g>
</g>
</svg>
